if (_typeface_js && _typeface_js.loadFace) _typeface_js.loadFace({"glyphs":{"S":{"x_min":89,"x_max":578,"ha":667,"o":"m 128 651 q 193 526 128 573 q 328 465 233 497 q 578 205 578 380 q 511 40 578 102 q 341 -21 444 -21 q 159 48 230 -21 q 89 227 89 117 q 108 247 89 247 q 127 227 125 247 q 130 191 127 215 q 219 51 143 99 q 340 18 269 18 q 483 68 427 18 q 539 205 539 119 q 315 427 539 354 q 161 502 209 462 q 89 651 89 559 q 155 800 89 740 q 311 861 221 861 q 476 796 411 861 q 542 633 542 731 q 521 613 542 613 q 501 633 507 613 q 494 687 501 651 q 318 820 460 817 l 311 822 q 182 773 237 823 q 128 651 128 723 "},"¦":{"x_min":96,"x_max":135,"ha":231,"o":"m 115 165 q 135 145 135 165 l 135 -262 q 115 -282 135 -282 q 96 -262 96 -282 l 96 145 q 115 165 96 165 m 115 847 q 135 827 135 847 l 135 417 q 115 398 135 398 q 96 417 96 398 l 96 827 q 115 847 96 847 "},"/":{"x_min":95.546875,"x_max":379.34375,"ha":475,"o":"m 115 -17 q 95 2 95 -17 q 341 825 95 5 q 359 839 345 839 q 379 819 379 839 q 133 -2 379 816 q 115 -17 129 -17 "},"y":{"x_min":89.015625,"x_max":477.890625,"ha":567,"o":"m 458 457 q 477 437 477 457 q 205 -265 477 434 q 187 -278 201 -278 q 168 -258 168 -278 q 268 2 168 -254 q 176 218 264 6 q 89 437 89 430 q 108 457 89 457 q 126 445 121 457 l 287 52 l 440 444 q 458 457 446 457 "},"Ž":{"x_min":96.015625,"x_max":592,"ha":688,"o":"m 592 818 q 148 46 592 814 l 558 46 q 577 26 577 46 q 558 7 577 7 l 115 7 q 96 26 96 7 q 539 799 96 31 l 129 799 q 110 818 110 799 q 129 838 110 838 l 572 838 q 592 818 592 838 m 334 887 q 249 1022 249 1016 q 268 1042 249 1042 q 285 1033 279 1042 l 350 933 l 417 1033 q 434 1042 423 1042 q 454 1022 454 1042 q 368 887 454 1016 l 334 887 "},"Á":{"x_min":89,"x_max":675.109375,"ha":764,"o":"m 108 -10 q 89 9 89 -10 q 362 847 89 12 q 382 860 366 860 q 401 847 397 860 q 675 9 675 12 q 655 -10 675 -10 q 635 4 641 -10 l 531 324 l 231 324 l 126 4 q 108 -10 122 -10 m 381 782 l 244 363 l 519 363 l 381 782 m 373 906 q 379 920 373 915 l 508 1050 q 522 1056 514 1056 q 541 1035 541 1056 q 536 1023 541 1028 l 407 893 q 393 887 401 887 q 373 906 373 887 "},"g":{"x_min":90,"x_max":540,"ha":635,"o":"m 520 456 q 540 436 540 456 l 540 -119 q 530 -155 540 -131 q 323 -272 483 -272 q 227 -253 280 -272 q 142 -205 166 -234 q 135 -191 135 -198 q 155 -172 135 -172 q 208 -202 151 -172 q 323 -233 264 -233 q 492 -146 453 -233 q 501 -119 501 -128 l 501 93 q 313 -17 434 -17 q 153 56 217 -17 q 90 225 90 129 q 153 394 90 322 q 313 467 217 467 q 501 356 434 467 l 501 436 q 520 456 501 456 m 315 22 q 447 83 394 22 q 501 225 501 144 q 447 366 501 305 q 315 428 394 428 q 182 366 235 428 q 129 225 129 305 q 182 83 129 144 q 315 22 235 22 "},"²":{"x_min":96,"x_max":353,"ha":449,"o":"m 353 708 q 300 592 353 638 q 201 523 251 558 q 137 436 144 484 l 327 436 q 347 416 347 436 q 327 397 347 397 l 115 397 q 108 398 115 397 l 101 402 l 97 408 l 96 416 q 151 535 96 487 q 256 606 205 571 q 314 709 314 649 q 287 773 314 746 q 223 801 261 801 q 161 774 187 801 q 135 709 135 747 q 115 690 135 690 q 96 709 96 690 q 133 801 96 763 q 223 840 171 840 q 315 801 277 840 q 353 708 353 762 "},"–":{"x_min":96,"x_max":572.390625,"ha":668,"o":"m 552 469 q 572 450 572 469 q 552 431 572 431 l 115 431 q 96 450 96 431 q 115 469 96 469 l 552 469 "},"ë":{"x_min":89,"x_max":538,"ha":626,"o":"m 312 465 q 473 392 408 465 q 538 223 538 320 q 517 204 538 204 l 129 204 q 187 75 135 129 q 312 21 238 21 q 472 102 413 21 q 488 112 479 112 q 508 93 508 112 q 505 83 508 87 q 312 -18 447 -18 q 153 54 218 -18 q 89 223 89 126 q 152 392 89 320 q 312 465 216 465 m 129 243 l 496 243 q 437 371 489 317 q 312 426 386 426 q 187 371 238 426 q 129 243 135 317 m 239 584 q 271 552 271 584 q 239 520 271 520 q 207 552 207 520 q 239 584 207 584 m 400 552 q 368 520 400 520 q 336 552 336 520 q 368 584 336 584 q 400 552 400 584 "},"ƒ":{"x_min":-56,"x_max":423.15625,"ha":464,"o":"m 349 854 q 423 827 423 854 q 403 808 423 808 q 377 811 395 808 q 349 815 359 815 q 271 749 281 815 l 233 479 l 334 479 q 354 459 354 479 q 334 440 354 440 l 228 440 l 141 -184 q 28 -279 128 -279 q -56 -248 -56 -279 q -36 -229 -56 -229 q -6 -234 -29 -229 q 27 -240 16 -240 q 102 -180 94 -240 l 190 440 l 117 440 q 98 459 98 440 q 117 479 98 479 l 195 479 l 232 754 q 349 854 248 854 "},"Î":{"x_min":82,"x_max":286.171875,"ha":369,"o":"m 89 23 q 108 43 89 43 l 165 43 l 165 800 l 108 800 q 89 819 89 800 q 108 839 89 839 l 260 839 q 280 819 280 839 q 260 800 280 800 l 204 800 l 204 43 l 260 43 q 280 23 280 43 q 260 4 280 4 l 108 4 q 89 23 89 4 m 266 885 q 286 904 286 885 q 201 1038 286 911 q 183 1047 195 1047 q 166 1038 172 1047 q 82 904 82 911 q 101 885 82 885 q 118 894 112 885 l 183 994 l 250 894 q 266 885 255 885 "},"e":{"x_min":89,"x_max":538,"ha":626,"o":"m 312 465 q 473 392 408 465 q 538 223 538 320 q 517 204 538 204 l 129 204 q 187 75 135 129 q 312 21 238 21 q 472 102 413 21 q 488 112 479 112 q 508 93 508 112 q 505 83 508 87 q 312 -18 447 -18 q 153 54 218 -18 q 89 223 89 126 q 152 392 89 320 q 312 465 216 465 m 129 243 l 496 243 q 437 371 489 317 q 312 426 386 426 q 187 371 238 426 q 129 243 135 317 "},"Ã":{"x_min":89,"x_max":675.109375,"ha":764,"o":"m 108 -10 q 89 9 89 -10 q 362 847 89 12 q 382 860 366 860 q 401 847 397 860 q 675 9 675 12 q 655 -10 675 -10 q 635 4 641 -10 l 531 324 l 231 324 l 126 4 q 108 -10 122 -10 m 381 782 l 244 363 l 519 363 l 381 782 m 249 923 q 264 999 249 967 q 324 1040 285 1040 q 392 989 360 1040 q 444 939 425 939 q 474 1019 469 939 q 493 1040 475 1040 q 513 1020 513 1040 q 442 900 513 900 q 372 950 406 900 q 322 1001 338 1001 q 288 923 294 1001 q 268 904 286 904 q 249 923 249 904 "},"J":{"x_min":89,"x_max":665,"ha":754,"o":"m 322 -14 q 158 50 227 -14 q 89 209 89 115 q 108 229 89 229 q 128 209 128 229 q 186 78 128 131 q 322 25 244 25 q 518 258 518 25 l 518 797 q 518 804 518 801 l 426 804 q 407 823 407 804 q 426 843 407 843 l 645 843 q 665 823 665 843 q 645 804 665 804 l 557 804 q 557 258 557 801 q 322 -14 557 -14 "},"»":{"x_min":-1554,"x_max":-1295.65625,"ha":8831,"o":"m -1333 220 q -1431 6 -1431 10 q -1413 -13 -1431 -13 q -1395 -1 -1401 -13 l -1297 209 q -1295 220 -1295 211 q -1297 231 -1295 230 l -1395 443 q -1413 456 -1401 456 q -1431 436 -1431 456 q -1333 220 -1431 430 m -1534 456 q -1554 436 -1554 456 q -1455 222 -1554 432 q -1554 6 -1554 10 q -1534 -13 -1554 -13 q -1516 -1 -1522 -13 l -1417 209 q -1416 222 -1416 212 q -1417 233 -1416 231 l -1516 444 q -1534 456 -1522 456 "},"‐":{"x_min":96,"x_max":409,"ha":504,"o":"m 115 431 q 96 450 96 431 q 115 469 96 469 l 390 469 q 409 450 409 469 q 390 431 409 431 l 115 431 "},"©":{"x_min":96,"x_max":979,"ha":1075,"o":"m 537 856 q 849 726 720 856 q 979 412 979 596 q 849 100 979 230 q 537 -29 720 -29 q 225 100 355 -29 q 96 412 96 230 q 225 726 96 596 q 537 856 355 856 m 537 10 q 822 128 704 10 q 940 412 940 247 q 822 698 940 579 q 537 817 704 817 q 252 698 370 817 q 135 412 135 579 q 252 128 135 247 q 537 10 370 10 m 548 607 q 417 546 470 607 q 364 405 364 486 q 416 265 364 326 q 547 204 469 204 q 678 262 624 204 q 698 291 686 276 q 721 306 710 306 q 738 287 738 306 q 706 237 738 271 q 547 165 640 165 q 389 237 454 165 q 325 405 325 309 q 389 574 325 502 q 548 646 454 646 q 707 575 641 646 q 738 529 738 542 q 719 512 738 512 q 697 525 707 512 q 679 549 687 538 q 548 607 624 607 "},"˘":{"x_min":0,"x_max":0,"ha":96},"ò":{"x_min":89,"x_max":538,"ha":626,"o":"m 312 467 q 473 393 408 467 q 538 225 538 320 q 473 55 538 127 q 312 -17 408 -17 q 152 55 216 -17 q 89 225 89 127 q 152 393 89 320 q 312 467 216 467 m 313 22 q 445 83 392 22 q 498 225 498 144 q 445 366 498 305 q 313 427 392 427 q 180 366 233 427 q 128 225 128 305 q 180 83 128 144 q 313 22 233 22 m 184 666 q 198 660 192 666 l 326 533 q 331 519 331 527 q 312 500 331 500 q 298 505 304 500 l 170 633 q 165 646 165 638 q 184 666 165 666 "},"^":{"x_min":5807,"x_max":6140,"ha":9210,"o":"m 6120 475 q 6103 486 6108 475 l 5973 758 l 5843 486 q 5826 475 5838 475 q 5807 494 5807 475 q 5954 806 5807 498 q 5973 818 5958 818 q 5992 806 5988 818 q 6140 494 6140 498 q 6120 475 6140 475 "},"«":{"x_min":-1554,"x_max":-1295.65625,"ha":8831,"o":"m -1515 220 q -1416 6 -1416 10 q -1435 -13 -1416 -13 q -1454 -1 -1448 -13 l -1552 209 q -1554 220 -1554 211 q -1552 231 -1554 230 l -1454 443 q -1435 456 -1448 456 q -1416 436 -1416 456 q -1515 220 -1416 430 m -1315 456 q -1295 436 -1295 456 q -1394 222 -1295 432 q -1295 6 -1295 10 q -1315 -13 -1295 -13 q -1331 -1 -1327 -13 l -1431 209 q -1431 222 -1431 212 q -1431 233 -1431 231 l -1331 444 q -1315 456 -1327 456 "},"D":{"x_min":96,"x_max":586,"ha":675,"o":"m 115 -8 q 96 11 96 -8 l 96 828 q 116 849 96 849 l 316 849 q 477 762 406 849 q 563 591 536 692 q 586 419 586 510 q 563 248 586 330 q 477 77 536 146 q 316 -8 406 -8 l 123 -8 q 115 -8 119 -8 m 547 419 q 526 580 547 504 q 455 730 502 669 q 316 810 394 810 l 135 810 l 135 31 l 316 31 q 455 109 394 31 q 526 259 502 170 q 547 419 547 336 "},"ł":{"x_min":0,"x_max":0,"ha":96},"ÿ":{"x_min":89.015625,"x_max":477.890625,"ha":567,"o":"m 458 457 q 477 437 477 457 q 205 -265 477 434 q 187 -278 201 -278 q 168 -258 168 -278 q 268 2 168 -254 q 176 218 264 6 q 89 437 89 430 q 108 457 89 457 q 126 445 121 457 l 287 52 l 440 444 q 458 457 446 457 m 211 584 q 243 552 243 584 q 211 520 243 520 q 179 552 179 520 q 211 584 179 584 m 372 552 q 340 520 372 520 q 308 552 308 520 q 340 584 308 584 q 372 552 372 584 "},"Ł":{"x_min":0,"x_max":0,"ha":96},"í":{"x_min":108,"x_max":278.0625,"ha":256,"o":"m 127 453 q 147 433 147 453 l 147 11 q 127 -8 147 -8 q 108 11 108 -8 l 108 433 q 127 453 108 453 m 110 518 q 115 532 110 526 l 244 661 q 258 667 250 667 q 278 646 278 667 q 273 634 278 639 l 143 504 q 129 499 138 499 q 110 518 110 499 "},"ˆ":{"x_min":96,"x_max":300.171875,"ha":396,"o":"m 280 649 q 300 668 300 649 q 215 802 300 675 q 197 811 209 811 q 180 802 186 811 q 96 668 96 675 q 115 649 96 649 q 132 658 126 649 l 197 758 l 264 658 q 280 649 269 649 "},"w":{"x_min":88.984375,"x_max":764,"ha":853,"o":"m 744 458 q 764 438 764 458 q 607 -2 764 436 q 586 -15 602 -15 q 565 -2 569 -15 l 427 386 l 288 -3 q 267 -15 284 -15 q 245 -2 250 -15 q 88 438 88 436 q 109 458 88 458 q 127 446 123 458 l 267 53 l 407 445 q 426 458 411 458 q 447 445 441 458 l 586 52 l 726 445 q 744 458 730 458 "},"$":{"x_min":96,"x_max":581,"ha":676,"o":"m 115 244 q 134 225 132 244 q 137 186 134 211 q 225 48 151 97 q 311 18 259 25 l 311 426 q 96 644 96 497 q 159 791 96 731 q 311 852 222 850 q 311 886 311 887 q 330 907 313 907 q 350 884 347 907 q 350 850 350 887 q 490 776 437 838 q 544 626 544 713 q 524 608 544 608 q 507 626 510 608 q 498 678 503 644 q 350 814 469 795 l 350 455 q 581 202 581 373 q 516 40 581 102 q 350 -21 451 -20 l 350 -165 q 330 -185 350 -185 q 311 -165 311 -185 l 311 -21 q 154 58 212 -8 q 96 224 96 124 q 115 244 96 244 m 311 814 q 186 763 238 811 q 135 644 135 715 q 311 467 135 528 l 311 814 m 350 412 l 350 16 q 488 68 434 18 q 542 202 542 118 q 350 412 542 340 "},"∫":{"x_min":0,"x_max":0,"ha":96},"\\":{"x_min":5378.53125,"x_max":5662.328125,"ha":9210,"o":"m 5398 -17 q 5378 2 5378 -17 q 5624 825 5378 5 q 5642 839 5628 839 q 5662 819 5662 839 q 5416 -2 5662 816 q 5398 -17 5412 -17 "},"Ì":{"x_min":89,"x_max":280,"ha":369,"o":"m 89 23 q 108 43 89 43 l 165 43 l 165 800 l 108 800 q 89 819 89 800 q 108 839 89 839 l 260 839 q 280 819 280 839 q 260 800 280 800 l 204 800 l 204 43 l 260 43 q 280 23 280 43 q 260 4 280 4 l 108 4 q 89 23 89 4 m 115 1055 q 129 1049 123 1055 l 257 922 q 262 908 262 916 q 243 889 262 889 q 229 894 235 889 l 101 1022 q 96 1035 96 1027 q 115 1055 96 1055 "},"µ":{"x_min":0,"x_max":0,"ha":96},"Ç":{"x_min":89,"x_max":618.171875,"ha":707,"o":"m 376 -17 q 261 19 315 -17 q 129 199 175 76 q 89 423 89 305 q 129 648 89 542 q 261 828 175 770 q 376 865 315 865 q 582 733 497 865 q 618 659 618 676 q 598 640 618 640 q 580 652 586 640 q 376 826 494 826 q 283 795 327 826 q 162 630 205 744 q 128 423 128 533 q 162 217 128 315 q 283 51 205 103 q 376 22 327 22 q 580 195 494 22 q 598 208 586 208 q 618 188 618 208 q 582 115 618 172 q 376 -17 497 -17 m 355 -210 q 373 -191 355 -194 q 428 -160 400 -187 q 456 -106 456 -133 q 443 -90 456 -90 q 398 -106 426 -90 q 365 -123 369 -123 q 346 -102 346 -123 q 362 -1 346 -102 q 382 14 365 14 q 401 -5 401 14 q 391 -66 401 -6 q 444 -51 421 -51 q 495 -106 495 -51 q 454 -189 495 -147 q 373 -231 414 -231 q 355 -210 355 -231 "},"’":{"x_min":103,"x_max":180.875,"ha":269,"o":"m 180 809 l 180 801 q 164 723 182 773 q 122 668 143 668 q 103 687 103 668 q 139 780 119 722 q 116 809 116 787 q 148 842 116 842 q 180 809 179 842 "},"-":{"x_min":96,"x_max":409,"ha":504,"o":"m 115 431 q 96 450 96 431 q 115 469 96 469 l 390 469 q 409 450 409 469 q 390 431 409 431 l 115 431 "},"Q":{"x_min":89,"x_max":664,"ha":753,"o":"m 376 863 q 491 826 436 863 q 623 646 577 769 q 664 422 664 542 q 576 104 664 230 q 645 4 645 11 q 626 -15 645 -15 q 611 -6 616 -15 l 551 72 q 376 -19 475 -19 q 261 17 315 -19 q 129 197 175 75 q 89 422 89 303 q 129 646 89 540 q 261 826 175 769 q 376 863 315 863 m 551 137 q 625 422 625 255 q 588 628 625 530 q 469 794 547 743 q 376 824 425 824 q 283 794 327 824 q 162 628 205 743 q 128 422 128 531 q 162 217 128 314 q 283 50 205 101 q 376 20 327 20 q 527 104 459 20 q 451 213 451 207 q 470 233 451 233 q 486 225 480 233 l 551 137 "},"M":{"x_min":96,"x_max":729,"ha":825,"o":"m 115 -8 q 96 11 96 -8 l 96 826 q 115 846 96 846 q 138 828 131 846 l 413 78 l 690 833 q 709 846 694 846 q 729 826 729 846 l 729 11 q 709 -8 729 -8 q 690 11 690 -8 l 690 719 l 433 20 q 414 -1 433 -1 q 396 12 400 -1 l 135 722 l 135 11 q 115 -8 135 -8 "},"C":{"x_min":89,"x_max":618.171875,"ha":707,"o":"m 376 -17 q 261 19 315 -17 q 129 199 175 76 q 89 423 89 305 q 129 648 89 542 q 261 828 175 770 q 376 865 315 865 q 582 733 497 865 q 618 659 618 676 q 598 640 618 640 q 580 652 586 640 q 376 826 494 826 q 283 795 327 826 q 162 630 205 744 q 128 423 128 533 q 162 217 128 315 q 283 51 205 103 q 376 22 327 22 q 580 195 494 22 q 598 208 586 208 q 618 188 618 208 q 582 115 618 172 q 376 -17 497 -17 "},"œ":{"x_min":96,"x_max":949,"ha":1044,"o":"m 900 111 q 919 91 919 111 q 916 81 919 87 q 725 -18 857 -18 q 603 21 658 -18 q 522 123 548 60 q 441 20 496 59 q 319 -18 386 -18 q 159 54 223 -18 q 96 221 96 126 q 159 390 96 318 q 319 463 223 463 q 440 424 386 463 q 522 321 494 385 q 603 423 548 384 q 725 463 658 463 q 885 391 821 463 q 949 222 949 319 q 929 203 949 203 l 543 203 q 598 76 548 127 q 725 21 651 21 q 883 101 826 21 q 900 111 890 111 m 725 424 q 600 370 651 424 q 543 242 548 316 l 909 242 q 850 370 902 316 q 725 424 799 424 m 319 21 q 452 83 399 21 q 501 223 501 141 q 449 363 501 303 q 319 424 398 424 q 187 363 240 424 q 135 221 135 302 q 187 81 135 141 q 319 21 240 21 "},"!":{"x_min":96,"x_max":160,"ha":256,"o":"m 128 162 q 109 183 109 162 l 109 830 q 128 850 109 850 q 148 830 148 850 l 148 183 q 128 162 148 162 m 128 57 q 160 26 160 57 q 128 -6 160 -6 q 96 26 96 -6 q 128 57 96 57 "},"ç":{"x_min":89,"x_max":503,"ha":592,"o":"m 503 100 q 498 88 503 94 l 498 88 q 312 -18 432 -18 q 152 54 216 -18 q 89 223 89 126 q 153 392 89 320 q 314 465 217 465 q 475 394 407 465 q 503 349 503 362 q 483 330 503 330 q 468 337 475 330 q 314 426 413 426 q 181 364 234 426 q 128 223 128 303 q 180 82 128 143 q 312 21 233 21 q 400 45 357 21 q 464 106 443 69 q 482 119 471 119 q 503 100 503 119 m 286 -210 q 304 -191 286 -194 q 359 -160 331 -187 q 387 -106 387 -133 q 374 -90 387 -90 q 329 -106 357 -90 q 296 -123 300 -123 q 277 -102 277 -123 q 293 -1 277 -102 q 313 14 296 14 q 332 -5 332 14 q 322 -66 332 -6 q 375 -51 352 -51 q 426 -106 426 -51 q 385 -189 426 -147 q 304 -231 345 -231 q 286 -210 286 -231 "},"È":{"x_min":96,"x_max":510,"ha":599,"o":"m 115 -4 q 96 15 96 -4 l 96 829 q 115 849 96 849 l 490 849 q 510 829 510 849 q 490 810 510 810 l 135 810 l 135 474 l 366 474 q 386 454 386 474 q 366 435 386 435 l 135 435 l 135 35 l 490 35 q 510 15 510 35 q 490 -4 510 -4 l 115 -4 m 226 1055 q 240 1049 234 1055 l 368 922 q 373 908 373 916 q 354 889 373 889 q 340 894 346 889 l 212 1022 q 207 1035 207 1027 q 226 1055 207 1055 "},"{":{"x_min":96,"x_max":418.234375,"ha":514,"o":"m 418 826 q 398 807 418 807 l 301 807 q 246 782 268 807 q 224 725 224 758 l 224 378 q 204 285 224 307 q 224 191 224 264 l 224 -155 q 246 -212 224 -188 q 301 -237 268 -237 l 398 -237 q 418 -256 418 -237 q 398 -276 418 -276 l 301 -276 q 219 -239 253 -276 q 185 -155 185 -203 l 185 192 q 182 247 185 240 q 136 266 175 266 q 109 266 112 266 q 96 285 96 270 q 114 306 96 306 q 176 313 168 306 q 185 378 185 321 l 185 725 q 219 810 185 775 q 301 846 253 846 l 398 846 q 418 826 418 846 "},"X":{"x_min":89,"x_max":583,"ha":672,"o":"m 563 846 q 583 826 583 846 q 358 422 583 822 q 583 16 583 20 q 563 -3 583 -3 q 545 6 552 -3 l 336 381 l 125 6 q 108 -3 119 -3 q 89 16 89 -3 q 314 422 89 20 q 89 826 89 822 q 108 846 89 846 q 125 836 119 846 l 336 461 l 545 836 q 563 846 552 846 "},"ô":{"x_min":89,"x_max":538,"ha":626,"o":"m 312 467 q 473 393 408 467 q 538 225 538 320 q 473 55 538 127 q 312 -17 408 -17 q 152 55 216 -17 q 89 225 89 127 q 152 393 89 320 q 312 467 216 467 m 313 22 q 445 83 392 22 q 498 225 498 144 q 445 366 498 305 q 313 427 392 427 q 180 366 233 427 q 128 225 128 305 q 180 83 128 144 q 313 22 233 22 m 391 482 q 411 501 411 482 q 326 635 411 508 q 308 644 320 644 q 291 635 297 644 q 207 501 207 508 q 226 482 207 482 q 243 491 237 482 l 308 591 l 375 491 q 391 482 380 482 "},"¼":{"x_min":96,"x_max":729,"ha":825,"o":"m 189 497 q 228 477 228 497 q 208 458 228 458 l 131 458 q 112 477 112 458 q 150 497 112 497 l 150 840 q 115 820 120 820 q 96 840 96 820 q 104 855 96 850 q 169 896 164 896 q 189 876 189 896 l 189 876 l 189 497 m 169 -17 q 150 2 150 -17 q 539 823 150 6 q 557 834 544 834 q 574 815 574 834 q 187 -5 574 811 q 169 -17 181 -17 m 729 230 q 709 211 729 213 q 679 211 709 211 l 679 18 q 659 -1 679 -1 q 640 18 640 -1 l 640 211 l 484 211 q 465 230 465 211 q 499 430 465 231 q 519 447 502 447 q 539 427 539 447 q 508 250 539 426 l 640 250 l 640 427 q 659 447 640 447 q 679 427 679 447 l 679 250 q 709 250 709 250 q 729 230 729 247 "},"#":{"x_min":96,"x_max":540,"ha":636,"o":"m 210 524 l 183 413 q 165 399 180 399 q 146 418 146 399 q 169 524 146 419 l 115 524 q 96 543 96 524 q 115 563 96 563 l 178 563 l 206 681 l 115 681 q 96 699 96 681 q 115 719 96 719 l 215 719 l 241 830 q 259 844 244 844 q 279 824 279 844 q 255 719 279 823 l 426 719 l 453 830 q 471 844 455 844 q 490 824 490 844 q 466 719 490 823 l 520 719 q 540 699 540 719 q 520 681 540 681 l 457 681 l 429 563 l 520 563 q 540 543 540 563 q 520 524 540 524 l 421 524 l 394 413 q 376 399 391 399 q 357 418 357 399 q 380 524 357 419 l 210 524 m 245 681 l 218 563 l 390 563 l 418 681 l 245 681 "},"Ê":{"x_min":96,"x_max":510,"ha":599,"o":"m 115 -4 q 96 15 96 -4 l 96 829 q 115 849 96 849 l 490 849 q 510 829 510 849 q 490 810 510 810 l 135 810 l 135 474 l 366 474 q 386 454 386 474 q 366 435 386 435 l 135 435 l 135 35 l 490 35 q 510 15 510 35 q 490 -4 510 -4 l 115 -4 m 377 899 q 397 918 397 899 q 312 1052 397 925 q 294 1061 306 1061 q 277 1052 283 1061 q 193 918 193 925 q 212 899 193 899 q 229 908 223 899 l 294 1008 l 361 908 q 377 899 366 899 "},")":{"x_min":96,"x_max":332.109375,"ha":428,"o":"m 115 -288 q 255 -157 197 -288 q 314 42 294 -71 q 332 266 332 148 q 314 491 332 384 q 255 691 294 603 q 115 822 197 822 q 96 802 96 822 q 115 783 96 783 q 229 656 179 783 q 277 476 262 573 q 293 266 293 378 q 277 57 293 155 q 229 -124 262 -40 q 115 -250 179 -250 q 96 -268 96 -250 q 115 -288 96 -288 "},"Å":{"x_min":89,"x_max":675.109375,"ha":764,"o":"m 108 -10 q 89 9 89 -10 q 362 847 89 12 q 382 860 366 860 q 401 847 397 860 q 675 9 675 12 q 655 -10 675 -10 q 635 4 641 -10 l 531 324 l 231 324 l 126 4 q 108 -10 122 -10 m 381 782 l 244 363 l 519 363 l 381 782 m 378 1099 q 468 1060 430 1099 q 506 969 506 1022 q 468 878 506 916 q 378 840 430 840 q 286 878 324 840 q 249 969 249 916 q 286 1060 249 1022 q 378 1099 324 1099 m 378 869 q 447 899 418 869 q 477 969 477 929 q 447 1039 477 1009 q 378 1070 418 1070 q 307 1039 336 1070 q 278 969 278 1009 q 307 899 278 929 q 378 869 336 869 "},"ø":{"x_min":90,"x_max":537,"ha":632,"o":"m 127 -13 q 108 6 108 -13 q 148 62 108 14 q 90 224 90 131 q 153 394 90 322 q 313 467 217 467 q 452 413 391 467 q 499 458 491 458 q 519 438 519 458 q 480 385 519 431 q 537 224 537 316 q 473 55 537 127 q 313 -17 409 -17 q 176 34 237 -17 q 127 -13 135 -13 m 498 224 q 453 355 498 298 l 202 63 q 313 22 251 22 q 445 83 392 22 q 498 224 498 144 m 129 225 q 174 91 129 149 l 427 384 q 313 428 377 428 q 181 366 234 428 q 129 225 129 305 "},"â":{"x_min":90,"x_max":547,"ha":642,"o":"m 527 457 q 547 437 547 457 l 547 13 q 527 -6 547 -6 q 508 13 508 -6 l 508 102 q 313 -18 442 -18 q 153 54 217 -18 q 90 223 90 126 q 153 392 90 320 q 313 465 217 465 q 508 344 442 465 l 508 437 q 527 457 508 457 m 313 21 q 445 82 392 21 q 498 223 498 143 q 445 364 498 303 q 313 426 392 426 q 181 364 234 426 q 129 223 129 303 q 181 82 129 143 q 313 21 234 21 m 405 496 q 425 515 425 496 q 340 649 425 522 q 322 658 334 658 q 305 649 311 658 q 221 515 221 522 q 240 496 221 496 q 257 505 251 496 l 322 605 l 389 505 q 405 496 394 496 "},"}":{"x_min":96,"x_max":418.234375,"ha":514,"o":"m 96 826 q 115 806 96 806 l 212 806 q 267 782 244 806 q 290 725 290 758 l 290 377 q 309 284 290 306 q 290 191 290 263 l 290 -155 q 267 -213 290 -188 q 212 -237 244 -237 l 115 -237 q 96 -256 96 -237 q 115 -276 96 -276 l 212 -276 q 295 -239 261 -276 q 329 -155 329 -203 l 329 191 q 332 247 329 240 q 376 265 339 265 q 404 265 401 265 q 418 284 418 269 q 400 305 418 305 q 337 313 346 305 q 329 377 329 320 l 329 725 q 295 810 329 775 q 212 846 261 846 l 115 846 q 96 826 96 846 "},"‰":{"x_min":96,"x_max":1336,"ha":1424,"o":"m 278 376 q 141 458 194 376 q 96 616 96 528 q 141 774 96 704 q 278 857 194 857 q 413 774 361 857 q 459 616 459 704 q 413 458 459 528 q 278 376 361 376 m 278 818 q 169 747 210 818 q 135 616 135 688 q 169 485 135 544 q 278 415 210 415 q 385 485 344 415 q 420 616 420 544 q 385 747 420 688 q 278 818 344 818 m 557 199 q 601 358 557 287 q 737 439 654 439 q 874 358 821 439 q 920 199 920 287 q 874 40 920 111 q 737 -42 821 -42 q 601 40 654 -42 q 557 199 557 111 m 738 401 q 629 329 671 401 q 595 199 595 270 q 629 66 595 126 q 738 -3 671 -3 q 846 66 804 -3 q 881 199 881 126 q 846 329 881 270 q 738 401 804 401 m 318 -17 q 298 2 298 -17 q 687 823 298 6 q 705 834 693 834 q 723 815 723 834 q 335 -5 723 811 q 318 -17 330 -17 m 972 198 q 1017 356 972 286 q 1154 439 1070 439 q 1290 356 1237 439 q 1336 198 1336 286 q 1290 40 1336 110 q 1154 -42 1237 -42 q 1017 40 1070 -42 q 972 198 972 110 m 1154 401 q 1045 331 1087 401 q 1011 199 1011 271 q 1045 68 1011 127 q 1154 -3 1087 -3 q 1262 68 1220 -3 q 1297 199 1297 127 q 1262 331 1297 271 q 1154 401 1220 401 "},"Ä":{"x_min":89,"x_max":675.109375,"ha":764,"o":"m 108 -10 q 89 9 89 -10 q 362 847 89 12 q 382 860 366 860 q 401 847 397 860 q 675 9 675 12 q 655 -10 675 -10 q 635 4 641 -10 l 531 324 l 231 324 l 126 4 q 108 -10 122 -10 m 381 782 l 244 363 l 519 363 l 381 782 m 322 973 q 354 941 354 973 q 322 909 354 909 q 290 941 290 909 q 322 973 290 973 m 483 941 q 451 909 483 909 q 419 941 419 909 q 451 973 419 973 q 483 941 483 973 "},"¸":{"x_min":96,"x_max":245,"ha":340,"o":"m 105 -210 q 123 -191 105 -194 q 178 -160 150 -187 q 206 -106 206 -133 q 193 -90 206 -90 q 148 -106 176 -90 q 115 -123 119 -123 q 96 -102 96 -123 q 112 -1 96 -102 q 132 14 115 14 q 151 -5 151 14 q 141 -66 151 -6 q 194 -51 171 -51 q 245 -106 245 -51 q 204 -189 245 -147 q 123 -231 164 -231 q 105 -210 105 -231 "},"a":{"x_min":90,"x_max":547,"ha":642,"o":"m 527 457 q 547 437 547 457 l 547 13 q 527 -6 547 -6 q 508 13 508 -6 l 508 102 q 313 -18 442 -18 q 153 54 217 -18 q 90 223 90 126 q 153 392 90 320 q 313 465 217 465 q 508 344 442 465 l 508 437 q 527 457 508 457 m 313 21 q 445 82 392 21 q 498 223 498 143 q 445 364 498 303 q 313 426 392 426 q 181 364 234 426 q 129 223 129 303 q 181 82 129 143 q 313 21 234 21 "},"—":{"x_min":96,"x_max":732.125,"ha":828,"o":"m 712 469 q 732 450 732 469 q 712 431 732 431 l 115 431 q 96 450 96 431 q 115 469 96 469 l 712 469 "},"=":{"x_min":96,"x_max":521,"ha":617,"o":"m 115 508 q 96 527 96 508 q 115 547 96 547 l 501 547 q 521 527 521 547 q 501 508 521 508 l 115 508 m 115 363 q 96 382 96 363 q 115 402 96 402 l 501 402 q 521 382 521 402 q 501 363 521 363 l 115 363 "},"N":{"x_min":96,"x_max":540,"ha":636,"o":"m 540 13 q 520 -6 540 -6 q 504 5 508 -6 l 135 747 l 135 13 q 115 -6 135 -6 q 96 13 96 -6 l 96 830 q 115 850 96 850 q 133 839 128 850 l 501 99 l 501 830 q 520 850 501 850 q 540 830 540 850 l 540 13 "},"˚":{"x_min":96,"x_max":353,"ha":449,"o":"m 225 849 q 315 810 277 849 q 353 719 353 772 q 315 628 353 666 q 225 590 277 590 q 133 628 171 590 q 96 719 96 666 q 133 810 96 772 q 225 849 171 849 m 225 619 q 294 649 265 619 q 324 719 324 679 q 294 789 324 759 q 225 820 265 820 q 154 789 183 820 q 125 719 125 759 q 154 649 125 679 q 225 619 183 619 "},"ú":{"x_min":90,"x_max":469,"ha":564,"o":"m 449 453 q 469 433 469 453 l 469 8 q 449 -11 469 -11 q 430 8 430 -11 l 430 88 q 269 -21 375 -21 q 137 42 187 -21 q 90 184 90 101 l 90 433 q 109 453 90 453 q 129 433 129 453 l 129 184 q 163 70 129 116 q 269 18 202 18 q 430 275 430 18 l 430 433 q 449 453 430 453 m 221 504 q 226 518 221 512 l 355 647 q 369 653 361 653 q 389 632 389 653 q 384 620 389 625 l 254 490 q 240 485 249 485 q 221 504 221 485 "},"2":{"x_min":89,"x_max":564,"ha":653,"o":"m 326 856 q 494 785 425 856 q 564 614 564 714 q 455 382 564 476 q 251 239 352 310 q 132 38 138 153 l 534 38 q 554 18 554 38 q 534 -1 554 -1 l 108 -1 q 101 0 108 -1 l 94 4 l 90 11 l 89 18 q 202 251 89 157 q 412 397 307 323 q 524 611 524 486 q 467 756 524 696 q 326 817 410 817 q 185 757 243 817 q 128 613 128 697 q 108 594 128 594 q 89 613 89 594 q 158 785 89 714 q 326 856 227 856 "},"ü":{"x_min":90,"x_max":469,"ha":564,"o":"m 449 453 q 469 433 469 453 l 469 8 q 449 -11 469 -11 q 430 8 430 -11 l 430 88 q 269 -21 375 -21 q 137 42 187 -21 q 90 184 90 101 l 90 433 q 109 453 90 453 q 129 433 129 453 l 129 184 q 163 70 129 116 q 269 18 202 18 q 430 275 430 18 l 430 433 q 449 453 430 453 m 211 584 q 243 552 243 584 q 211 520 243 520 q 179 552 179 520 q 211 584 179 584 m 372 552 q 340 520 372 520 q 308 552 308 520 q 340 584 308 584 q 372 552 372 584 "},"¯":{"x_min":0,"x_max":0,"ha":96},"Z":{"x_min":89,"x_max":584.828125,"ha":674,"o":"m 584 818 q 141 46 584 814 l 551 46 q 570 26 570 46 q 551 7 570 7 l 108 7 q 89 26 89 7 q 532 799 89 31 l 123 799 q 104 818 104 799 q 123 838 104 838 l 565 838 q 584 818 584 838 "},"u":{"x_min":90,"x_max":469,"ha":564,"o":"m 449 453 q 469 433 469 453 l 469 8 q 449 -11 469 -11 q 430 8 430 -11 l 430 88 q 269 -21 375 -21 q 137 42 187 -21 q 90 184 90 101 l 90 433 q 109 453 90 453 q 129 433 129 453 l 129 184 q 163 70 129 116 q 269 18 202 18 q 430 275 430 18 l 430 433 q 449 453 430 453 "},"˜":{"x_min":96,"x_max":360,"ha":456,"o":"m 96 673 q 111 749 96 717 q 171 790 132 790 q 239 739 207 790 q 291 689 272 689 q 321 769 316 689 q 340 790 322 790 q 360 770 360 790 q 289 650 360 650 q 219 700 253 650 q 169 751 185 751 q 135 673 141 751 q 115 654 133 654 q 96 673 96 654 "},"Ó":{"x_min":89,"x_max":664,"ha":753,"o":"m 376 864 q 491 827 436 864 q 623 647 577 770 q 664 423 664 541 q 623 198 664 304 q 491 18 577 76 q 376 -18 436 -18 q 261 18 315 -18 q 129 198 175 76 q 89 423 89 304 q 129 647 89 541 q 261 827 175 770 q 376 864 315 864 m 376 21 q 469 51 425 21 q 588 216 547 102 q 625 423 625 314 q 588 629 625 532 q 469 795 547 744 q 376 825 425 825 q 283 795 327 825 q 162 629 205 744 q 128 423 128 532 q 162 216 128 314 q 283 51 205 102 q 376 21 327 21 m 304 906 q 309 920 304 915 l 439 1050 q 452 1056 444 1056 q 472 1035 472 1056 q 467 1023 472 1028 l 338 893 q 324 887 332 887 q 304 906 304 887 "},"k":{"x_min":96,"x_max":434.890625,"ha":506,"o":"m 245 281 l 432 20 q 434 9 434 15 q 415 -10 434 -10 q 400 -1 405 -10 l 215 256 l 135 190 l 135 9 q 115 -10 135 -10 q 96 9 96 -10 l 96 823 q 115 843 96 843 q 135 823 135 843 l 135 242 l 395 456 q 408 461 401 461 q 428 441 428 461 q 421 426 428 431 l 245 281 "},"ˇ":{"x_min":95,"x_max":300,"ha":396,"o":"m 196 893 q 180 901 185 893 q 95 1036 95 1030 q 114 1056 95 1056 q 131 1047 125 1056 l 196 947 l 263 1047 q 280 1056 269 1056 q 300 1036 300 1056 q 214 901 300 1030 q 196 893 209 893 "},"Ù":{"x_min":96,"x_max":606,"ha":701,"o":"m 586 854 q 606 834 606 854 l 606 220 q 535 45 606 108 q 351 -17 465 -17 q 167 46 239 -17 q 96 220 96 109 l 96 834 q 115 854 96 854 q 135 834 135 854 l 135 220 q 197 72 135 126 q 351 22 254 22 q 507 73 448 22 q 567 220 567 124 l 567 834 q 586 854 567 854 m 268 1041 q 282 1035 276 1041 l 410 908 q 415 894 415 902 q 396 875 415 875 q 382 880 388 875 l 254 1008 q 249 1021 249 1013 q 268 1041 249 1041 "},"Ÿ":{"x_min":88.984375,"x_max":575.109375,"ha":664,"o":"m 555 849 q 575 829 575 849 q 352 401 575 823 l 352 13 q 332 -6 352 -6 q 313 13 313 -6 l 313 402 q 88 829 88 823 q 108 849 88 849 q 125 837 119 849 l 332 448 l 538 837 q 555 849 544 849 m 267 932 q 299 900 299 932 q 267 868 299 868 q 235 900 235 868 q 267 932 235 932 m 428 900 q 396 868 428 868 q 364 900 364 868 q 396 932 364 932 q 428 900 428 932 "},"€":{"x_min":6840,"x_max":7352.5,"ha":8781,"o":"m 7183 819 q 7017 713 7085 819 q 6944 519 6962 630 l 7195 519 q 7215 499 7215 519 q 7195 480 7215 480 l 6936 480 q 6936 425 6936 451 l 7195 425 q 7215 405 7215 425 q 7195 386 7215 386 l 6936 386 q 6999 149 6942 256 q 7183 15 7070 15 q 7284 51 7235 15 q 7333 87 7333 87 q 7352 67 7352 87 q 7346 54 7352 59 q 7183 -24 7280 -24 q 6970 120 7052 -24 q 6897 386 6903 240 q 6862 386 6858 386 q 6840 406 6840 388 q 6862 425 6840 422 q 6896 425 6858 425 q 6899 480 6896 451 q 6863 480 6856 480 q 6840 499 6840 482 q 6866 519 6840 516 q 6905 519 6853 519 q 6988 741 6924 646 q 7183 858 7069 858 q 7346 779 7280 858 q 7352 766 7352 773 q 7333 747 7352 747 q 7284 783 7333 747 q 7183 819 7235 819 "},"¢":{"x_min":96,"x_max":504.34375,"ha":600,"o":"m 504 558 q 487 568 498 568 q 468 548 468 568 q 469 541 468 544 q 384 613 436 593 l 276 229 q 319 224 295 224 q 469 308 415 224 q 468 301 468 305 q 487 281 468 281 q 504 290 498 281 q 319 185 439 185 q 265 191 292 185 l 215 13 q 197 0 212 0 q 177 19 177 0 q 229 204 177 22 q 132 295 168 234 q 96 424 96 355 q 161 592 96 520 q 321 665 226 665 q 358 664 339 665 l 404 826 q 422 842 408 842 q 441 822 441 842 q 394 651 441 819 q 504 558 464 625 m 135 424 q 162 317 135 367 q 240 243 190 267 l 347 624 q 319 626 332 626 q 187 565 240 626 q 135 424 135 505 "},"Ω":{"x_min":0,"x_max":0,"ha":96},"ß":{"x_min":96,"x_max":552,"ha":600,"o":"m 244 803 q 135 712 135 803 l 135 9 q 115 -10 135 -10 q 96 9 96 -10 l 96 712 q 137 808 96 775 q 244 842 179 842 q 373 787 319 842 q 427 657 427 732 q 399 565 427 612 q 348 498 382 536 q 321 464 321 469 q 401 370 321 450 q 503 273 453 322 q 552 152 552 220 q 503 27 552 80 q 382 -25 454 -25 q 182 81 275 -25 q 177 95 177 87 q 196 115 177 115 q 260 64 196 115 q 382 14 324 14 q 475 54 438 14 q 513 152 513 95 q 474 247 513 205 q 369 348 421 297 q 284 448 293 422 q 282 465 282 458 q 335 542 282 482 q 388 657 388 602 q 345 759 388 716 q 244 803 303 803 "},"é":{"x_min":89,"x_max":538,"ha":626,"o":"m 312 465 q 473 392 408 465 q 538 223 538 320 q 517 204 538 204 l 129 204 q 187 75 135 129 q 312 21 238 21 q 472 102 413 21 q 488 112 479 112 q 508 93 508 112 q 505 83 508 87 q 312 -18 447 -18 q 153 54 218 -18 q 89 223 89 126 q 152 392 89 320 q 312 465 216 465 m 129 243 l 496 243 q 437 371 489 317 q 312 426 386 426 q 187 371 238 426 q 129 243 135 317 m 234 518 q 240 531 234 526 l 369 661 q 383 667 375 667 q 402 647 402 667 q 397 634 402 639 l 268 505 q 254 498 263 498 q 234 518 234 498 "},"s":{"x_min":89,"x_max":468,"ha":557,"o":"m 134 345 q 219 275 134 297 q 380 236 300 255 q 468 125 468 201 q 405 15 468 57 q 280 -19 351 -19 q 150 11 201 -19 q 89 123 89 50 q 112 155 89 155 q 128 133 128 155 q 280 20 128 20 q 377 43 336 20 q 429 125 429 74 q 341 208 429 183 q 180 247 261 228 q 95 344 95 276 q 156 437 95 406 q 272 461 203 461 q 397 431 348 461 q 457 324 457 395 q 436 306 457 306 q 418 327 419 306 q 395 383 415 361 q 272 422 362 422 q 134 345 134 422 "},"B":{"x_min":96,"x_max":556,"ha":644,"o":"m 116 -8 q 96 14 96 -8 l 96 831 q 115 851 96 851 l 304 851 q 441 787 386 851 q 497 640 497 724 q 394 454 497 513 q 510 367 465 429 q 556 230 556 305 q 483 61 556 130 q 311 -8 411 -8 l 116 -8 m 517 230 q 455 371 517 313 q 311 430 394 430 l 135 430 l 135 31 l 311 31 q 455 89 394 31 q 517 230 517 147 m 458 639 q 414 759 458 707 q 304 812 370 812 l 135 812 l 135 469 l 302 469 q 413 520 369 469 q 458 639 458 571 "},"…":{"x_min":97,"x_max":630,"ha":731,"o":"m 129 58 q 161 26 161 58 q 129 -6 161 -6 q 97 26 97 -6 q 129 58 97 58 m 598 58 q 630 26 630 58 q 598 -6 630 -6 q 566 26 566 -6 q 598 58 566 58 m 366 58 q 398 26 398 58 q 366 -6 398 -6 q 334 26 334 -6 q 366 58 334 58 "},"?":{"x_min":96,"x_max":574,"ha":669,"o":"m 96 623 q 164 793 96 729 q 339 857 232 857 q 505 795 437 857 q 574 636 574 734 q 523 495 574 555 q 409 398 500 468 q 334 313 354 355 q 314 200 314 270 q 295 162 314 162 q 275 190 275 162 l 275 200 q 299 330 275 280 q 386 429 323 380 q 487 513 471 494 q 535 634 535 565 q 478 767 535 716 q 337 818 421 818 q 192 766 250 818 q 135 629 135 715 q 116 605 135 605 q 96 623 96 605 m 293 57 q 325 25 325 57 q 293 -7 325 -7 q 261 25 261 -7 q 293 57 261 57 "},"H":{"x_min":96,"x_max":539,"ha":635,"o":"m 115 -7 q 96 12 96 -7 l 96 831 q 115 851 96 851 q 135 831 135 851 l 135 468 l 500 468 l 500 831 q 519 851 500 851 q 539 831 539 851 l 539 12 q 519 -7 539 -7 q 500 12 500 -7 l 500 429 l 135 429 l 135 12 q 115 -7 135 -7 "},"î":{"x_min":27,"x_max":231.171875,"ha":256,"o":"m 127 453 q 147 433 147 453 l 147 11 q 127 -8 147 -8 q 108 11 108 -8 l 108 433 q 127 453 108 453 m 211 510 q 231 529 231 510 q 146 663 231 536 q 128 672 140 672 q 111 663 117 672 q 27 529 27 536 q 46 510 27 510 q 63 519 57 510 l 128 619 l 195 519 q 211 510 200 510 "},"c":{"x_min":89,"x_max":503,"ha":592,"o":"m 503 100 q 498 88 503 94 l 498 88 q 312 -18 432 -18 q 152 54 216 -18 q 89 223 89 126 q 153 392 89 320 q 314 465 217 465 q 475 394 407 465 q 503 349 503 362 q 483 330 503 330 q 468 337 475 330 q 314 426 413 426 q 181 364 234 426 q 128 223 128 303 q 180 82 128 143 q 312 21 233 21 q 400 45 357 21 q 464 106 443 69 q 482 119 471 119 q 503 100 503 119 "},"¶":{"x_min":96,"x_max":730.734375,"ha":826,"o":"m 650 833 l 711 833 q 730 813 730 833 q 703 794 730 795 q 663 794 718 794 l 663 -268 q 643 -288 663 -288 q 624 -268 624 -288 l 624 794 l 412 794 l 412 -268 q 393 -288 412 -288 q 374 -268 374 -288 l 374 387 l 318 387 q 161 452 226 387 q 96 610 96 518 q 161 767 96 701 q 318 833 226 833 l 384 833 q 393 833 389 833 q 400 833 396 833 l 636 833 q 643 833 639 833 q 650 833 647 833 m 374 426 l 374 794 l 318 794 q 189 740 243 794 q 135 610 135 686 q 189 479 135 533 q 318 426 243 426 l 374 426 "},"−":{"x_min":96,"x_max":409,"ha":504,"o":"m 115 431 q 96 450 96 431 q 115 469 96 469 l 390 469 q 409 450 409 469 q 390 431 409 431 l 115 431 "},"≠":{"x_min":0,"x_max":0,"ha":96},"•":{"x_min":96,"x_max":399,"ha":494,"o":"m 247 617 q 355 566 312 617 q 399 451 399 516 q 355 335 399 385 q 247 285 312 285 q 139 335 182 285 q 96 451 96 385 q 139 566 96 516 q 247 617 182 617 "},"¥":{"x_min":96,"x_max":580.734375,"ha":676,"o":"m 561 843 q 580 823 580 843 q 357 403 580 819 l 531 403 q 551 383 551 403 q 531 365 551 365 l 357 365 l 357 258 l 531 258 q 551 238 551 258 q 531 219 551 219 l 357 219 l 357 11 q 337 -8 357 -8 q 318 11 318 -8 l 318 219 l 144 219 q 125 238 125 219 q 144 258 125 258 l 318 258 l 318 365 l 144 365 q 125 383 125 365 q 144 403 125 403 l 318 403 q 96 823 96 819 q 115 843 96 843 q 132 833 126 843 l 336 449 l 544 833 q 561 843 549 843 "},"(":{"x_min":96,"x_max":332.109375,"ha":428,"o":"m 312 -288 q 172 -157 230 -288 q 114 42 133 -71 q 96 266 96 148 q 114 491 96 384 q 172 691 133 603 q 312 822 230 822 q 332 802 332 822 q 312 783 332 783 q 198 656 248 783 q 150 476 165 573 q 135 266 135 378 q 150 57 135 155 q 198 -123 165 -40 q 312 -250 248 -250 q 332 -268 332 -250 q 312 -288 332 -288 "},"U":{"x_min":96,"x_max":606,"ha":701,"o":"m 586 854 q 606 834 606 854 l 606 220 q 535 45 606 108 q 351 -17 465 -17 q 167 46 239 -17 q 96 220 96 109 l 96 834 q 115 854 96 854 q 135 834 135 854 l 135 220 q 197 72 135 126 q 351 22 254 22 q 507 73 448 22 q 567 220 567 124 l 567 834 q 586 854 567 854 "},"Ñ":{"x_min":96,"x_max":540,"ha":636,"o":"m 540 13 q 520 -6 540 -6 q 504 5 508 -6 l 135 747 l 135 13 q 115 -6 135 -6 q 96 13 96 -6 l 96 830 q 115 850 96 850 q 133 839 128 850 l 501 99 l 501 830 q 520 850 501 850 q 540 830 540 850 l 540 13 m 193 909 q 208 985 193 953 q 268 1026 229 1026 q 336 975 304 1026 q 388 925 369 925 q 418 1005 413 925 q 437 1026 419 1026 q 457 1006 457 1026 q 386 886 457 886 q 316 936 350 886 q 266 987 282 987 q 232 909 238 987 q 212 890 230 890 q 193 909 193 890 "},"F":{"x_min":96,"x_max":509.890625,"ha":599,"o":"m 115 -6 q 96 13 96 -6 l 96 827 q 115 847 96 847 l 490 847 q 509 827 509 847 q 490 808 509 808 l 135 808 l 135 472 l 366 472 q 386 452 386 472 q 366 433 386 433 l 135 433 l 135 13 q 115 -6 135 -6 "},"­":{"x_min":96,"x_max":409,"ha":504,"o":"m 115 431 q 96 450 96 431 q 115 469 96 469 l 390 469 q 409 450 409 469 q 390 431 409 431 l 115 431 "},":":{"x_min":96,"x_max":160,"ha":256,"o":"m 128 57 q 160 25 160 57 q 128 -7 160 -7 q 96 25 96 -7 q 128 57 96 57 m 128 390 q 96 422 96 390 q 128 453 96 453 q 160 422 160 453 q 128 390 160 390 "},"Û":{"x_min":96,"x_max":606,"ha":701,"o":"m 586 854 q 606 834 606 854 l 606 220 q 535 45 606 108 q 351 -17 465 -17 q 167 46 239 -17 q 96 220 96 109 l 96 834 q 115 854 96 854 q 135 834 135 854 l 135 220 q 197 72 135 126 q 351 22 254 22 q 507 73 448 22 q 567 220 567 124 l 567 834 q 586 854 567 854 m 433 899 q 453 918 453 899 q 368 1052 453 925 q 350 1061 362 1061 q 333 1052 339 1061 q 249 918 249 925 q 268 899 249 899 q 285 908 279 899 l 350 1008 l 417 908 q 433 899 422 899 "},"*":{"x_min":96,"x_max":476,"ha":572,"o":"m 115 472 q 96 491 96 472 q 104 508 96 501 l 258 610 l 104 714 q 96 731 96 721 q 115 751 96 751 q 268 651 120 751 l 268 811 q 287 831 268 831 q 307 811 307 831 l 307 644 q 456 744 451 744 q 476 724 476 744 q 467 707 476 714 l 326 611 l 467 517 q 476 500 476 510 q 456 481 476 481 q 307 579 451 481 l 307 412 q 287 393 307 393 q 268 412 268 393 l 268 572 q 115 472 120 472 "},"†":{"x_min":96,"x_max":497,"ha":592,"o":"m 316 600 l 477 600 q 497 580 497 600 q 477 561 497 561 l 316 561 l 316 -259 q 296 -279 316 -279 q 277 -259 277 -279 l 277 561 l 115 561 q 96 580 96 561 q 115 600 96 600 l 277 600 l 277 829 q 296 849 277 849 q 316 829 316 849 l 316 600 "},"°":{"x_min":96,"x_max":353,"ha":449,"o":"m 225 849 q 315 810 277 849 q 353 719 353 772 q 315 628 353 666 q 225 590 277 590 q 133 628 171 590 q 96 719 96 666 q 133 810 96 772 q 225 849 171 849 m 225 619 q 294 649 265 619 q 324 719 324 679 q 294 789 324 759 q 225 820 265 820 q 154 789 183 820 q 125 719 125 759 q 154 649 125 679 q 225 619 183 619 "},"V":{"x_min":89,"x_max":675.109375,"ha":764,"o":"m 655 849 q 675 829 675 849 q 401 -15 675 826 q 382 -28 397 -28 q 362 -15 366 -28 q 89 829 89 826 q 108 849 89 849 q 126 836 122 849 l 382 51 l 636 836 q 655 849 641 849 "},"å":{"x_min":90,"x_max":547,"ha":642,"o":"m 527 457 q 547 437 547 457 l 547 13 q 527 -6 547 -6 q 508 13 508 -6 l 508 102 q 313 -18 442 -18 q 153 54 217 -18 q 90 223 90 126 q 153 392 90 320 q 313 465 217 465 q 508 344 442 465 l 508 437 q 527 457 508 457 m 313 21 q 445 82 392 21 q 498 223 498 143 q 445 364 498 303 q 313 426 392 426 q 181 364 234 426 q 129 223 129 303 q 181 82 129 143 q 313 21 234 21 m 322 696 q 412 657 374 696 q 450 566 450 619 q 412 475 450 513 q 322 437 374 437 q 230 475 268 437 q 193 566 193 513 q 230 657 193 619 q 322 696 268 696 m 322 466 q 391 496 362 466 q 421 566 421 526 q 391 636 421 606 q 322 667 362 667 q 251 636 280 667 q 222 566 222 606 q 251 496 222 526 q 322 466 280 466 "}," ":{"x_min":0,"x_max":0,"ha":504},"0":{"x_min":89,"x_max":664,"ha":753,"o":"m 376 864 q 491 827 436 864 q 623 647 577 770 q 664 423 664 541 q 623 198 664 304 q 491 18 577 76 q 376 -18 436 -18 q 261 18 315 -18 q 129 198 175 76 q 89 423 89 304 q 129 647 89 541 q 261 827 175 770 q 376 864 315 864 m 376 21 q 469 51 425 21 q 588 216 547 102 q 625 423 625 314 q 588 629 625 532 q 469 795 547 744 q 376 825 425 825 q 283 795 327 825 q 162 629 205 744 q 128 423 128 532 q 162 216 128 314 q 283 51 205 102 q 376 21 327 21 "},"”":{"x_min":103,"x_max":297.53125,"ha":393,"o":"m 297 801 l 297 793 q 280 715 298 765 q 239 660 259 660 q 219 679 219 660 q 255 772 234 714 q 233 801 233 779 q 265 834 233 834 q 297 801 294 834 m 180 809 l 180 801 q 164 723 182 773 q 122 668 143 668 q 103 687 103 668 q 139 780 119 722 q 116 809 116 787 q 148 842 116 842 q 180 809 179 842 "},"¾":{"x_min":96,"x_max":854,"ha":950,"o":"m 294 -17 q 276 2 276 -17 q 664 823 276 6 q 682 834 669 834 q 701 815 701 834 q 312 -5 701 811 q 294 -17 307 -17 m 854 230 q 835 211 854 213 q 804 211 835 211 l 804 18 q 784 -1 804 -1 q 765 18 765 -1 l 765 211 l 609 211 q 590 230 590 211 q 624 430 590 231 q 644 447 627 447 q 664 427 664 447 q 633 250 664 426 l 765 250 l 765 427 q 784 447 765 447 q 804 427 804 447 l 804 250 q 835 250 835 250 q 854 230 854 247 m 232 422 q 300 449 272 422 q 329 515 329 476 q 300 582 329 555 q 232 610 272 610 q 212 629 212 610 q 232 649 212 649 q 293 671 267 649 q 320 726 320 693 q 293 781 320 759 q 232 804 267 804 q 172 781 199 804 q 145 726 145 759 q 125 706 145 706 q 106 726 106 706 q 144 809 106 776 q 232 843 182 843 q 320 809 282 843 q 359 726 359 776 q 302 628 359 663 q 368 515 368 590 q 327 421 368 460 q 232 383 287 383 q 136 421 176 383 q 96 515 96 460 q 115 534 96 534 q 135 515 135 534 q 164 449 135 476 q 232 422 193 422 "},"@":{"x_min":96,"x_max":1099,"ha":1194,"o":"m 653 828 q 971 700 844 828 q 1099 382 1099 573 q 927 -10 1099 117 q 784 -69 849 -69 q 727 -6 727 -69 q 741 100 727 -1 q 534 -18 661 -18 q 396 41 450 -18 q 342 188 342 101 q 417 377 342 293 q 597 461 493 461 q 775 338 726 461 l 788 436 q 811 453 791 453 q 826 430 830 453 l 768 8 q 765 -6 765 -2 q 784 -30 765 -30 q 991 121 911 -30 q 1060 382 1060 247 q 944 673 1060 557 q 653 789 829 789 q 505 764 576 789 q 235 563 335 704 q 135 241 135 422 q 273 -105 135 34 q 619 -245 411 -245 q 941 -105 830 -245 q 957 -97 948 -97 q 976 -116 976 -97 q 973 -127 976 -122 q 815 -247 923 -204 q 618 -285 721 -285 q 246 -132 396 -285 q 96 243 96 19 q 202 585 96 434 q 491 800 309 736 q 653 828 569 828 m 535 21 q 688 93 623 21 q 753 254 753 165 q 709 373 753 324 q 597 422 666 422 q 445 349 510 422 q 381 188 381 277 q 423 69 381 118 q 535 21 465 21 "},"ö":{"x_min":89,"x_max":538,"ha":626,"o":"m 312 467 q 473 393 408 467 q 538 225 538 320 q 473 55 538 127 q 312 -17 408 -17 q 152 55 216 -17 q 89 225 89 127 q 152 393 89 320 q 312 467 216 467 m 313 22 q 445 83 392 22 q 498 225 498 144 q 445 366 498 305 q 313 427 392 427 q 180 366 233 427 q 128 225 128 305 q 180 83 128 144 q 313 22 233 22 m 239 584 q 271 552 271 584 q 239 520 271 520 q 207 552 207 520 q 239 584 207 584 m 400 552 q 368 520 400 520 q 336 552 336 520 q 368 584 336 584 q 400 552 400 584 "},"i":{"x_min":96,"x_max":160,"ha":256,"o":"m 160 588 q 128 558 160 558 q 96 588 96 558 q 128 621 96 621 q 160 588 160 621 m 128 453 q 148 433 148 453 l 148 11 q 128 -8 148 -8 q 109 11 109 -8 l 109 433 q 128 453 109 453 "},"Õ":{"x_min":89,"x_max":664,"ha":753,"o":"m 376 864 q 491 827 436 864 q 623 647 577 770 q 664 423 664 541 q 623 198 664 304 q 491 18 577 76 q 376 -18 436 -18 q 261 18 315 -18 q 129 198 175 76 q 89 423 89 304 q 129 647 89 541 q 261 827 175 770 q 376 864 315 864 m 376 21 q 469 51 425 21 q 588 216 547 102 q 625 423 625 314 q 588 629 625 532 q 469 795 547 744 q 376 825 425 825 q 283 795 327 825 q 162 629 205 744 q 128 423 128 532 q 162 216 128 314 q 283 51 205 102 q 376 21 327 21 m 235 923 q 250 999 235 967 q 310 1040 271 1040 q 378 989 346 1040 q 430 939 411 939 q 460 1019 455 939 q 479 1040 461 1040 q 499 1020 499 1040 q 428 900 499 900 q 358 950 392 900 q 308 1001 324 1001 q 274 923 280 1001 q 254 904 272 904 q 235 923 235 904 "},"þ":{"x_min":96,"x_max":553,"ha":642,"o":"m 115 838 q 135 818 135 838 l 135 343 q 329 464 200 464 q 488 391 423 464 q 553 222 553 319 q 488 53 553 126 q 329 -19 423 -19 q 135 102 200 -19 l 135 -254 q 115 -274 135 -274 q 96 -254 96 -274 l 96 818 q 115 838 96 838 m 329 425 q 195 363 248 425 q 143 222 143 302 q 195 81 143 142 q 329 20 248 20 q 461 81 408 20 q 514 222 514 142 q 461 363 514 302 q 329 425 408 425 "},"]":{"x_min":8648,"x_max":8878.546875,"ha":9210,"o":"m 8648 815 q 8667 795 8648 795 l 8841 795 l 8841 -238 l 8667 -238 q 8648 -258 8648 -238 q 8667 -278 8648 -278 l 8859 -278 q 8878 -258 8878 -278 l 8878 815 q 8859 835 8878 835 l 8667 835 q 8648 815 8648 835 "},"m":{"x_min":96,"x_max":817,"ha":906,"o":"m 637 464 q 768 403 719 464 q 817 259 817 343 l 817 11 q 797 -8 817 -8 q 778 11 778 -8 l 778 259 q 741 373 778 327 q 637 425 704 425 q 513 351 557 425 q 477 202 477 289 l 477 11 q 457 -8 477 -8 q 438 11 438 -8 l 438 259 q 401 373 438 327 q 297 425 362 425 q 169 363 212 425 q 135 208 132 307 q 135 198 135 198 l 135 11 q 115 -8 135 -8 q 96 11 96 -8 l 96 436 q 115 456 96 456 q 135 436 135 456 l 135 365 q 297 464 190 464 q 462 341 421 464 q 637 464 516 464 "},"8":{"x_min":89,"x_max":596,"ha":685,"o":"m 439 456 q 552 365 509 427 q 596 228 596 304 q 520 54 596 126 q 341 -17 445 -17 q 164 54 239 -17 q 89 228 89 126 q 132 365 89 304 q 245 456 175 427 q 147 533 184 481 q 110 650 110 586 q 180 802 110 741 q 343 864 250 864 q 504 802 434 864 q 575 650 575 741 q 537 533 575 586 q 439 456 500 481 m 149 650 q 207 525 149 575 q 343 475 265 475 q 477 525 419 475 q 536 650 536 575 q 477 775 536 725 q 343 825 419 825 q 207 775 265 825 q 149 650 149 725 m 341 22 q 493 82 429 22 q 557 229 557 142 q 493 376 557 316 q 341 436 429 436 q 191 376 255 436 q 128 229 128 316 q 191 82 128 142 q 341 22 255 22 "},"ž":{"x_min":96,"x_max":471,"ha":567,"o":"m 471 422 q 465 410 471 415 l 157 43 l 436 43 q 456 23 456 43 q 436 4 456 4 l 115 4 q 96 23 96 4 q 100 36 96 31 l 408 403 l 129 403 q 110 422 110 403 q 129 442 110 442 l 451 442 q 471 422 471 442 m 286 504 q 270 512 275 504 q 185 647 185 641 q 204 667 185 667 q 221 658 215 667 l 286 558 l 353 658 q 370 667 359 667 q 390 647 390 667 q 304 512 390 641 q 286 504 299 504 "},"R":{"x_min":96,"x_max":546.890625,"ha":618,"o":"m 358 376 q 546 13 546 18 q 527 -6 546 -6 q 511 3 516 -6 l 318 369 q 135 367 305 367 l 135 13 q 115 -6 135 -6 q 96 13 96 -6 l 96 823 q 115 843 96 843 l 294 843 q 464 773 393 843 q 535 605 535 704 q 485 461 535 524 q 358 376 436 397 m 294 407 q 436 465 377 407 q 496 605 496 523 q 436 745 496 687 q 294 804 377 804 l 135 804 l 135 407 l 294 407 "},"á":{"x_min":90,"x_max":547,"ha":642,"o":"m 527 457 q 547 437 547 457 l 547 13 q 527 -6 547 -6 q 508 13 508 -6 l 508 102 q 313 -18 442 -18 q 153 54 217 -18 q 90 223 90 126 q 153 392 90 320 q 313 465 217 465 q 508 344 442 465 l 508 437 q 527 457 508 457 m 313 21 q 445 82 392 21 q 498 223 498 143 q 445 364 498 303 q 313 426 392 426 q 181 364 234 426 q 129 223 129 303 q 181 82 129 143 q 313 21 234 21 m 277 518 q 283 531 277 526 l 412 661 q 426 667 417 667 q 445 647 445 667 q 440 634 445 639 l 311 505 q 297 498 305 498 q 277 518 277 498 "},"×":{"x_min":96,"x_max":408.515625,"ha":497,"o":"m 251 418 l 129 295 q 115 290 123 290 q 96 309 96 290 q 101 324 96 318 l 225 445 l 101 569 q 96 583 96 575 q 101 597 96 590 q 129 597 115 609 l 251 474 l 374 597 q 401 597 388 609 q 401 569 415 583 l 279 446 l 401 323 q 401 295 415 309 q 375 296 389 281 l 251 418 "},"o":{"x_min":89,"x_max":538,"ha":626,"o":"m 312 467 q 473 393 408 467 q 538 225 538 320 q 473 55 538 127 q 312 -17 408 -17 q 152 55 216 -17 q 89 225 89 127 q 152 393 89 320 q 312 467 216 467 m 313 22 q 445 83 392 22 q 498 225 498 144 q 445 366 498 305 q 313 427 392 427 q 180 366 233 427 q 128 225 128 305 q 180 83 128 144 q 313 22 233 22 "},"5":{"x_min":89,"x_max":571,"ha":660,"o":"m 330 582 q 508 483 439 582 q 571 283 571 395 q 508 82 571 171 q 330 -15 439 -15 q 157 64 225 -15 q 89 251 89 143 q 111 302 89 302 q 128 280 128 302 q 128 265 128 276 q 128 251 128 255 q 182 93 128 158 q 330 24 240 24 q 480 110 422 24 q 532 283 532 186 q 480 455 532 379 q 330 543 422 543 q 155 462 237 543 q 134 458 145 454 q 115 461 123 454 q 108 477 107 468 l 147 815 q 166 832 148 832 l 530 832 q 550 812 550 832 q 530 793 550 793 l 184 793 l 151 513 q 330 582 232 582 "},"õ":{"x_min":89,"x_max":538,"ha":626,"o":"m 312 467 q 473 393 408 467 q 538 225 538 320 q 473 55 538 127 q 312 -17 408 -17 q 152 55 216 -17 q 89 225 89 127 q 152 393 89 320 q 312 467 216 467 m 313 22 q 445 83 392 22 q 498 225 498 144 q 445 366 498 305 q 313 427 392 427 q 180 366 233 427 q 128 225 128 305 q 180 83 128 144 q 313 22 233 22 m 165 520 q 180 596 165 564 q 240 637 201 637 q 308 586 276 637 q 360 536 341 536 q 390 616 385 536 q 409 637 391 637 q 429 617 429 637 q 358 497 429 497 q 288 547 322 497 q 238 598 254 598 q 204 520 210 598 q 184 501 202 501 q 165 520 165 501 "},"7":{"x_min":89,"x_max":564,"ha":653,"o":"m 107 832 l 544 832 q 564 812 564 832 q 258 4 564 809 q 240 -8 252 -8 q 220 11 220 -8 q 514 793 220 14 l 108 793 q 89 812 89 793 q 107 832 89 832 "},"K":{"x_min":96,"x_max":592.046875,"ha":681,"o":"m 115 -6 q 96 13 96 -6 l 96 833 q 115 853 96 853 q 135 833 135 853 l 135 434 l 532 845 q 546 853 537 853 q 565 833 565 853 q 559 819 565 825 l 275 523 q 592 11 592 16 q 572 -6 592 -6 q 555 3 561 -6 l 247 494 l 135 378 l 135 13 q 115 -6 135 -6 "},",":{"x_min":96,"x_max":174.09375,"ha":269,"o":"m 174 27 l 174 19 q 157 -58 175 -8 q 115 -114 136 -114 q 96 -94 96 -114 q 132 -2 112 -61 q 110 27 110 4 q 142 60 110 60 q 174 27 172 60 "},"d":{"x_min":90,"x_max":547,"ha":642,"o":"m 527 844 q 547 824 547 844 l 547 12 q 527 -7 547 -7 q 508 12 508 -7 l 508 101 q 313 -19 442 -19 q 154 53 219 -19 q 90 222 90 125 q 153 391 90 318 q 313 464 217 464 q 508 341 442 464 l 508 824 q 527 844 508 844 m 313 20 q 445 81 392 20 q 498 222 498 142 q 445 363 498 302 q 313 425 392 425 q 181 363 234 425 q 129 222 129 302 q 181 81 129 142 q 313 20 234 20 "},"¨":{"x_min":96,"x_max":289,"ha":385,"o":"m 128 765 q 160 733 160 765 q 128 701 160 701 q 96 733 96 701 q 128 765 96 765 m 289 733 q 257 701 289 701 q 225 733 225 701 q 257 765 225 765 q 289 733 289 765 "},"Ô":{"x_min":89,"x_max":664,"ha":753,"o":"m 376 864 q 491 827 436 864 q 623 647 577 770 q 664 423 664 541 q 623 198 664 304 q 491 18 577 76 q 376 -18 436 -18 q 261 18 315 -18 q 129 198 175 76 q 89 423 89 304 q 129 647 89 541 q 261 827 175 770 q 376 864 315 864 m 376 21 q 469 51 425 21 q 588 216 547 102 q 625 423 625 314 q 588 629 625 532 q 469 795 547 744 q 376 825 425 825 q 283 795 327 825 q 162 629 205 744 q 128 423 128 532 q 162 216 128 314 q 283 51 205 102 q 376 21 327 21 m 461 885 q 481 904 481 885 q 396 1038 481 911 q 378 1047 390 1047 q 361 1038 367 1047 q 277 904 277 911 q 296 885 277 885 q 313 894 307 885 l 378 994 l 445 894 q 461 885 450 885 "},"E":{"x_min":96,"x_max":510,"ha":599,"o":"m 115 -4 q 96 15 96 -4 l 96 829 q 115 849 96 849 l 490 849 q 510 829 510 849 q 490 810 510 810 l 135 810 l 135 474 l 366 474 q 386 454 386 474 q 366 435 386 435 l 135 435 l 135 35 l 490 35 q 510 15 510 35 q 490 -4 510 -4 l 115 -4 "},"Y":{"x_min":88.984375,"x_max":575.109375,"ha":664,"o":"m 555 849 q 575 829 575 849 q 352 401 575 823 l 352 13 q 332 -6 352 -6 q 313 13 313 -6 l 313 402 q 88 829 88 823 q 108 849 88 849 q 125 837 119 849 l 332 448 l 538 837 q 555 849 544 849 "},"\"":{"x_min":96,"x_max":232,"ha":328,"o":"m 212 847 q 232 827 232 847 l 232 602 q 212 583 232 583 q 193 602 193 583 l 193 827 q 212 847 193 847 m 115 847 q 135 827 135 847 l 135 602 q 115 583 135 583 q 96 602 96 583 l 96 827 q 115 847 96 847 "},"‹":{"x_min":96,"x_max":233.5,"ha":329,"o":"m 134 220 q 233 6 233 10 q 214 -13 233 -13 q 196 -1 201 -13 l 97 209 q 96 220 96 211 q 97 231 96 230 l 196 443 q 214 456 201 456 q 233 436 233 456 q 134 220 233 430 "},"˙":{"x_min":0,"x_max":0,"ha":96},"ê":{"x_min":89,"x_max":538,"ha":626,"o":"m 312 465 q 473 392 408 465 q 538 223 538 320 q 517 204 538 204 l 129 204 q 187 75 135 129 q 312 21 238 21 q 472 102 413 21 q 488 112 479 112 q 508 93 508 112 q 505 83 508 87 q 312 -18 447 -18 q 153 54 218 -18 q 89 223 89 126 q 152 392 89 320 q 312 465 216 465 m 129 243 l 496 243 q 437 371 489 317 q 312 426 386 426 q 187 371 238 426 q 129 243 135 317 m 391 496 q 411 515 411 496 q 326 649 411 522 q 308 658 320 658 q 291 649 297 658 q 207 515 207 522 q 226 496 207 496 q 243 505 237 496 l 308 605 l 375 505 q 391 496 380 496 "},"Ï":{"x_min":82,"x_max":280,"ha":369,"o":"m 89 23 q 108 43 89 43 l 165 43 l 165 800 l 108 800 q 89 819 89 800 q 108 839 89 839 l 260 839 q 280 819 280 839 q 260 800 280 800 l 204 800 l 204 43 l 260 43 q 280 23 280 43 q 260 4 280 4 l 108 4 q 89 23 89 4 m 114 973 q 146 941 146 973 q 114 909 146 909 q 82 941 82 909 q 114 973 82 973 m 275 941 q 243 909 275 909 q 211 941 211 909 q 243 973 211 973 q 275 941 275 973 "},"„":{"x_min":96,"x_max":278.046875,"ha":369,"o":"m 174 27 l 174 19 q 157 -58 175 -8 q 115 -114 136 -114 q 96 -94 96 -114 q 132 -2 112 -61 q 110 27 110 4 q 142 60 110 60 q 174 27 172 60 m 277 23 l 277 15 q 261 -62 279 -12 q 219 -118 240 -118 q 200 -98 200 -118 q 236 -5 216 -63 q 214 23 214 1 q 246 56 214 56 q 277 23 276 56 "},"Â":{"x_min":89,"x_max":675.109375,"ha":764,"o":"m 108 -10 q 89 9 89 -10 q 362 847 89 12 q 382 860 366 860 q 401 847 397 860 q 675 9 675 12 q 655 -10 675 -10 q 635 4 641 -10 l 531 324 l 231 324 l 126 4 q 108 -10 122 -10 m 381 782 l 244 363 l 519 363 l 381 782 m 474 899 q 494 918 494 899 q 409 1052 494 925 q 391 1061 403 1061 q 374 1052 380 1061 q 290 918 290 925 q 309 899 290 899 q 326 908 320 899 l 391 1008 l 458 908 q 474 899 463 899 "},"Í":{"x_min":89,"x_max":280,"ha":369,"o":"m 89 23 q 108 43 89 43 l 165 43 l 165 800 l 108 800 q 89 819 89 800 q 108 839 89 839 l 260 839 q 280 819 280 839 q 260 800 280 800 l 204 800 l 204 43 l 260 43 q 280 23 280 43 q 260 4 280 4 l 108 4 q 89 23 89 4 m 96 907 q 101 921 96 915 l 230 1050 q 244 1056 236 1056 q 264 1035 264 1056 q 259 1023 264 1028 l 129 893 q 115 888 124 888 q 96 907 96 888 "},"´":{"x_min":96,"x_max":264.0625,"ha":360,"o":"m 96 907 q 101 921 96 915 l 230 1050 q 244 1056 236 1056 q 264 1035 264 1056 q 259 1023 264 1028 l 129 893 q 115 888 124 888 q 96 907 96 888 "},"ì":{"x_min":-15,"x_max":151.671875,"ha":256,"o":"m 127 453 q 147 433 147 453 l 147 11 q 127 -8 147 -8 q 108 11 108 -8 l 108 433 q 127 453 108 453 m 4 666 q 18 660 12 666 l 146 533 q 151 519 151 527 q 132 500 151 500 q 118 505 124 500 l -9 633 q -15 646 -15 638 q 4 666 -15 666 "},"Ú":{"x_min":96,"x_max":606,"ha":701,"o":"m 586 854 q 606 834 606 854 l 606 220 q 535 45 606 108 q 351 -17 465 -17 q 167 46 239 -17 q 96 220 96 109 l 96 834 q 115 854 96 854 q 135 834 135 854 l 135 220 q 197 72 135 126 q 351 22 254 22 q 507 73 448 22 q 567 220 567 124 l 567 834 q 586 854 567 854 m 304 906 q 309 920 304 915 l 439 1050 q 452 1056 444 1056 q 472 1035 472 1056 q 467 1023 472 1028 l 338 893 q 324 887 332 887 q 304 906 304 887 "},"|":{"x_min":96,"x_max":135,"ha":231,"o":"m 96 829 q 115 849 96 849 q 135 829 135 849 l 135 -258 q 115 -278 135 -278 q 96 -258 96 -278 l 96 829 "},"§":{"x_min":96,"x_max":582,"ha":678,"o":"m 135 647 q 200 523 135 571 q 333 462 240 494 q 582 204 582 378 q 544 74 582 129 q 582 -47 582 18 q 516 -212 582 -150 q 347 -274 450 -274 q 166 -204 236 -274 q 96 -26 96 -135 q 115 -6 96 -6 q 134 -26 132 -6 q 137 -69 134 -40 q 225 -201 152 -154 q 347 -235 275 -235 q 489 -184 433 -235 q 544 -47 544 -133 q 322 172 544 99 q 168 247 216 209 q 96 396 96 304 q 141 523 96 469 q 96 647 96 575 q 160 797 96 737 q 315 857 225 857 q 479 793 415 857 q 544 629 544 729 q 524 611 544 611 q 508 629 510 611 q 498 686 505 648 q 324 818 462 813 l 316 818 q 189 770 244 819 q 135 647 135 720 m 135 395 q 200 270 135 317 q 333 209 240 240 q 518 104 457 169 q 544 204 544 148 q 322 424 544 351 q 171 497 218 459 q 135 395 135 453 "},"Ý":{"x_min":88.984375,"x_max":575.109375,"ha":664,"o":"m 555 849 q 575 829 575 849 q 352 401 575 823 l 352 13 q 332 -6 352 -6 q 313 13 313 -6 l 313 402 q 88 829 88 823 q 108 849 88 849 q 125 837 119 849 l 332 448 l 538 837 q 555 849 544 849 m 277 907 q 282 921 277 915 l 411 1050 q 425 1056 417 1056 q 445 1035 445 1056 q 440 1023 445 1028 l 310 893 q 296 888 305 888 q 277 907 277 888 "},"b":{"x_min":96,"x_max":553,"ha":642,"o":"m 329 463 q 490 387 423 463 q 553 221 553 316 q 490 52 553 123 q 329 -21 423 -21 q 135 100 200 -21 l 135 9 q 115 -10 135 -10 q 96 9 96 -10 l 96 823 q 115 843 96 843 q 135 823 135 843 l 135 340 q 329 463 200 463 m 329 18 q 461 79 408 18 q 514 221 514 140 q 461 362 514 301 q 329 424 408 424 q 196 362 250 424 q 143 221 143 301 q 196 79 143 140 q 329 18 250 18 "},"q":{"x_min":90,"x_max":547,"ha":642,"o":"m 527 457 q 547 437 547 457 l 547 -254 q 527 -274 547 -274 q 508 -254 508 -274 l 508 102 q 313 -18 442 -18 q 153 54 217 -18 q 90 223 90 126 q 153 392 90 320 q 313 465 217 465 q 508 344 442 465 l 508 437 q 527 457 508 457 m 313 21 q 445 82 392 21 q 498 223 498 143 q 445 364 498 303 q 313 426 392 426 q 181 364 234 426 q 129 223 129 303 q 181 82 129 143 q 313 21 234 21 "},"Ω":{"x_min":0,"x_max":0,"ha":96},"Ö":{"x_min":89,"x_max":664,"ha":753,"o":"m 376 864 q 491 827 436 864 q 623 647 577 770 q 664 423 664 541 q 623 198 664 304 q 491 18 577 76 q 376 -18 436 -18 q 261 18 315 -18 q 129 198 175 76 q 89 423 89 304 q 129 647 89 541 q 261 827 175 770 q 376 864 315 864 m 376 21 q 469 51 425 21 q 588 216 547 102 q 625 423 625 314 q 588 629 625 532 q 469 795 547 744 q 376 825 425 825 q 283 795 327 825 q 162 629 205 744 q 128 423 128 532 q 162 216 128 314 q 283 51 205 102 q 376 21 327 21 m 309 973 q 341 941 341 973 q 309 909 341 909 q 277 941 277 909 q 309 973 277 973 m 470 941 q 438 909 470 909 q 406 941 406 909 q 438 973 406 973 q 470 941 470 973 "},"z":{"x_min":89,"x_max":464,"ha":553,"o":"m 464 422 q 458 410 464 415 l 150 43 l 429 43 q 449 23 449 43 q 429 4 449 4 l 108 4 q 89 23 89 4 q 93 36 89 31 l 401 403 l 122 403 q 103 422 103 403 q 122 442 103 442 l 444 442 q 464 422 464 442 "},"™":{"x_min":96,"x_max":704,"ha":800,"o":"m 328 832 q 348 812 348 832 q 328 794 348 794 l 242 794 l 242 412 q 222 393 242 393 q 203 412 203 393 l 203 794 l 115 794 q 96 812 96 794 q 115 832 96 832 l 328 832 m 684 838 q 704 818 704 838 l 704 412 q 684 393 704 393 q 665 412 665 393 l 665 711 l 557 413 q 537 393 550 393 q 519 409 523 393 l 409 711 l 409 412 q 389 393 409 393 q 370 412 370 393 l 370 818 q 389 838 370 838 q 409 822 404 838 l 537 474 l 666 825 q 684 838 670 838 "},"ã":{"x_min":90,"x_max":547,"ha":642,"o":"m 527 457 q 547 437 547 457 l 547 13 q 527 -6 547 -6 q 508 13 508 -6 l 508 102 q 313 -18 442 -18 q 153 54 217 -18 q 90 223 90 126 q 153 392 90 320 q 313 465 217 465 q 508 344 442 465 l 508 437 q 527 457 508 457 m 313 21 q 445 82 392 21 q 498 223 498 143 q 445 364 498 303 q 313 426 392 426 q 181 364 234 426 q 129 223 129 303 q 181 82 129 143 q 313 21 234 21 m 179 534 q 194 610 179 578 q 254 651 215 651 q 322 600 290 651 q 374 550 355 550 q 404 630 399 550 q 423 651 405 651 q 443 631 443 651 q 372 511 443 511 q 302 561 336 511 q 252 612 268 612 q 218 534 224 612 q 198 515 216 515 q 179 534 179 515 "},"æ":{"x_min":89,"x_max":947,"ha":1036,"o":"m 726 463 q 883 390 820 463 q 947 222 947 318 q 927 203 947 203 l 542 203 q 600 74 548 128 q 725 20 651 20 q 883 101 825 20 q 900 111 890 111 q 919 91 919 111 q 916 82 919 86 q 726 -19 858 -19 q 542 87 608 -19 l 542 11 q 520 -8 542 -8 q 498 11 498 -8 l 498 93 q 311 -19 433 -19 q 152 53 216 -19 q 89 222 89 125 q 152 390 89 318 q 311 463 216 463 q 498 350 433 463 l 498 433 q 520 453 498 453 q 542 433 542 453 l 542 356 q 726 463 608 463 m 313 20 q 445 81 392 20 q 498 222 498 142 q 445 363 498 303 q 313 424 392 424 q 180 363 233 424 q 128 222 128 303 q 180 81 128 142 q 313 20 233 20 m 542 242 l 907 242 q 849 370 900 317 q 725 424 798 424 q 600 370 651 424 q 542 242 548 317 "},"®":{"x_min":96,"x_max":979,"ha":1075,"o":"m 537 857 q 849 727 720 857 q 979 415 979 598 q 849 103 979 233 q 537 -26 720 -26 q 225 103 355 -26 q 96 415 96 233 q 225 727 96 598 q 537 857 355 857 m 537 13 q 822 130 704 13 q 940 415 940 248 q 822 700 940 582 q 537 818 704 818 q 252 700 370 818 q 135 415 135 582 q 252 130 135 248 q 537 13 370 13 m 601 386 q 730 201 730 208 q 710 183 730 183 q 695 190 700 183 l 560 379 q 437 377 550 377 l 437 201 q 417 181 437 181 q 399 201 399 181 l 399 626 q 417 646 399 646 l 544 646 q 661 611 608 646 q 721 512 721 573 q 685 432 721 465 q 601 386 650 398 m 437 417 l 544 417 q 633 440 593 417 q 682 512 682 466 q 633 583 682 557 q 544 607 593 607 l 437 607 l 437 417 "},"É":{"x_min":96,"x_max":510,"ha":599,"o":"m 115 -4 q 96 15 96 -4 l 96 829 q 115 849 96 849 l 490 849 q 510 829 510 849 q 490 810 510 810 l 135 810 l 135 474 l 366 474 q 386 454 386 474 q 366 435 386 435 l 135 435 l 135 35 l 490 35 q 510 15 510 35 q 490 -4 510 -4 l 115 -4 m 248 906 q 254 920 248 915 l 383 1050 q 397 1056 389 1056 q 416 1035 416 1056 q 411 1023 416 1028 l 282 893 q 268 887 276 887 q 248 906 248 887 "},"~":{"x_min":96,"x_max":568,"ha":664,"o":"m 547 493 q 568 468 568 493 q 544 369 568 408 q 459 324 515 324 q 327 392 393 324 q 215 461 261 461 q 135 354 135 461 q 115 334 135 334 q 96 354 96 334 q 125 454 96 415 q 215 500 157 500 q 343 431 277 500 q 459 363 408 363 q 529 468 529 363 q 547 493 529 493 "},"³":{"x_min":96,"x_max":368,"ha":464,"o":"m 232 422 q 300 449 272 422 q 329 515 329 476 q 300 582 329 555 q 232 610 272 610 q 212 629 212 610 q 232 649 212 649 q 293 670 267 649 q 320 726 320 692 q 293 781 320 759 q 232 803 267 803 q 172 781 199 803 q 145 726 145 759 q 125 706 145 706 q 106 726 106 706 q 144 808 106 775 q 232 842 182 842 q 320 808 282 842 q 359 726 359 775 q 302 629 359 663 q 368 515 368 590 q 327 421 368 459 q 232 383 287 383 q 136 421 176 383 q 96 515 96 459 q 115 534 96 534 q 135 515 135 534 q 164 449 135 476 q 232 422 193 422 "},"¡":{"x_min":96,"x_max":160,"ha":256,"o":"m 128 500 q 148 480 148 500 l 148 -166 q 128 -186 148 -186 q 109 -166 109 -186 l 109 480 q 128 500 109 500 m 128 605 q 96 637 96 605 q 128 669 96 669 q 160 637 160 669 q 128 605 160 605 "},"[":{"x_min":8648,"x_max":8879,"ha":9210,"o":"m 8879 815 q 8859 796 8879 796 l 8687 796 l 8687 -239 l 8859 -239 q 8879 -258 8879 -239 q 8859 -278 8879 -278 l 8667 -278 q 8648 -258 8648 -278 l 8648 815 q 8667 835 8648 835 l 8859 835 q 8879 815 8879 835 "},"L":{"x_min":96,"x_max":510,"ha":599,"o":"m 115 0 q 96 19 96 0 l 96 831 q 115 851 96 851 q 135 831 135 851 l 135 39 l 490 39 q 510 19 510 39 q 490 0 510 0 l 115 0 "}," ":{"x_min":0,"x_max":0,"ha":413},"∑":{"x_min":0,"x_max":0,"ha":96},"%":{"x_min":96,"x_max":920,"ha":1015,"o":"m 278 376 q 141 458 194 376 q 96 616 96 528 q 141 774 96 704 q 278 857 194 857 q 413 774 361 857 q 459 616 459 704 q 413 458 459 528 q 278 376 361 376 m 278 818 q 169 747 210 818 q 135 616 135 688 q 169 485 135 544 q 278 415 210 415 q 385 485 344 415 q 420 616 420 544 q 385 747 420 688 q 278 818 344 818 m 557 200 q 601 358 557 287 q 737 439 654 439 q 874 358 821 439 q 920 200 920 287 q 874 41 920 112 q 737 -40 821 -40 q 601 41 654 -40 q 557 200 557 112 m 738 401 q 629 330 671 401 q 595 200 595 270 q 629 68 595 127 q 738 -1 671 -1 q 846 68 804 -1 q 881 200 881 127 q 846 330 881 270 q 738 401 804 401 m 318 -17 q 299 2 299 -17 q 687 823 299 6 q 705 834 693 834 q 723 814 723 834 q 336 -5 723 810 q 318 -17 330 -17 "},"P":{"x_min":96,"x_max":535,"ha":624,"o":"m 294 849 q 464 778 393 849 q 535 610 535 708 q 464 441 535 511 q 294 371 393 371 l 135 371 l 135 11 q 115 -8 135 -8 q 96 11 96 -8 l 96 829 q 115 849 96 849 l 294 849 m 294 410 q 436 468 377 410 q 496 610 496 526 q 436 751 496 693 q 294 810 377 810 l 135 810 l 135 410 l 294 410 "},"∏":{"x_min":0,"x_max":0,"ha":96},"À":{"x_min":89,"x_max":675.109375,"ha":764,"o":"m 108 -10 q 89 9 89 -10 q 362 847 89 12 q 382 860 366 860 q 401 847 397 860 q 675 9 675 12 q 655 -10 675 -10 q 635 4 641 -10 l 531 324 l 231 324 l 126 4 q 108 -10 122 -10 m 381 782 l 244 363 l 519 363 l 381 782 m 254 1069 q 268 1063 262 1069 l 396 936 q 401 922 401 930 q 382 903 401 903 q 368 908 374 903 l 240 1036 q 235 1049 235 1041 q 254 1069 235 1069 "},"_":{"x_min":96,"x_max":625.171875,"ha":721,"o":"m 96 -56 l 625 -56 l 625 -75 l 96 -75 l 96 -56 "},"ñ":{"x_min":96,"x_max":475,"ha":564,"o":"m 295 467 q 427 403 377 467 q 475 261 475 344 l 475 13 q 455 -6 475 -6 q 436 13 436 -6 l 436 261 q 398 378 436 329 q 295 428 361 428 q 171 361 214 428 q 135 207 135 303 l 135 13 q 115 -6 135 -6 q 96 13 96 -6 l 96 437 q 115 457 96 457 q 135 437 135 457 l 135 369 q 295 467 191 467 m 152 534 q 167 610 152 578 q 227 651 188 651 q 295 600 263 651 q 347 550 328 550 q 377 630 372 550 q 396 651 378 651 q 416 631 416 651 q 345 511 416 511 q 275 561 309 511 q 225 612 241 612 q 191 534 197 612 q 171 515 189 515 q 152 534 152 515 "},"+":{"x_min":96,"x_max":520,"ha":617,"o":"m 289 426 l 115 426 q 96 445 96 426 q 115 465 96 465 l 289 465 l 289 638 q 308 658 289 658 q 328 638 328 658 l 328 465 l 500 465 q 520 445 520 465 q 500 426 520 426 l 328 426 l 328 252 q 308 233 328 233 q 289 252 289 233 l 289 426 "},"‚":{"x_min":96,"x_max":174.09375,"ha":269,"o":"m 174 27 l 174 19 q 157 -58 175 -8 q 115 -114 136 -114 q 96 -94 96 -114 q 132 -2 112 -61 q 110 27 110 4 q 142 60 110 60 q 174 27 172 60 "},"½":{"x_min":96,"x_max":750,"ha":846,"o":"m 189 497 q 228 477 228 497 q 208 458 228 458 l 131 458 q 112 477 112 458 q 150 497 112 497 l 150 840 q 115 820 120 820 q 96 840 96 820 q 104 855 96 850 q 169 896 164 896 q 189 876 189 896 l 189 876 l 189 497 m 169 -17 q 150 2 150 -17 q 539 823 150 6 q 557 834 544 834 q 574 815 574 834 q 187 -5 574 811 q 169 -17 181 -17 m 750 310 q 698 194 750 240 q 598 125 648 160 q 536 38 543 86 l 724 38 q 744 18 744 38 q 724 -1 744 -1 l 512 -1 q 505 0 512 -1 l 499 4 l 495 10 l 493 18 q 550 137 493 90 q 655 208 602 173 q 711 311 711 251 q 685 375 711 348 q 622 403 659 403 q 558 375 584 403 q 532 311 532 348 q 512 291 532 291 q 493 311 493 291 q 530 403 493 365 q 622 442 568 442 q 713 403 676 442 q 750 310 750 364 "},"Æ":{"x_min":96,"x_max":1064,"ha":1160,"o":"m 1064 827 q 1044 808 1064 808 l 690 808 l 690 471 l 921 471 q 941 451 941 471 q 921 432 941 432 l 690 432 l 690 33 l 1044 33 q 1064 13 1064 33 q 1044 -6 1064 -6 l 670 -6 q 651 13 651 -6 l 651 322 q 344 320 651 320 l 131 -1 q 115 -11 124 -11 q 96 8 96 -11 q 98 19 96 15 l 640 838 q 655 847 646 847 q 668 843 665 847 q 671 847 669 843 l 1044 847 q 1064 827 1064 847 m 370 360 q 651 360 651 360 l 651 785 l 370 360 "},"Ë":{"x_min":96,"x_max":510,"ha":599,"o":"m 115 -4 q 96 15 96 -4 l 96 829 q 115 849 96 849 l 490 849 q 510 829 510 849 q 490 810 510 810 l 135 810 l 135 474 l 366 474 q 386 454 386 474 q 366 435 386 435 l 135 435 l 135 35 l 490 35 q 510 15 510 35 q 490 -4 510 -4 l 115 -4 m 239 987 q 271 955 271 987 q 239 923 271 923 q 207 955 207 923 q 239 987 207 987 m 400 955 q 368 923 400 923 q 336 955 336 923 q 368 987 336 987 q 400 955 400 987 "},"'":{"x_min":96,"x_max":135,"ha":231,"o":"m 115 847 q 135 827 135 847 l 135 602 q 115 583 135 583 q 96 602 96 583 l 96 827 q 115 847 96 847 "},"Š":{"x_min":96,"x_max":585,"ha":681,"o":"m 135 651 q 200 526 135 573 q 335 465 240 497 q 585 205 585 380 q 518 40 585 102 q 348 -21 451 -21 q 166 48 237 -21 q 96 227 96 117 q 115 247 96 247 q 134 227 132 247 q 137 191 134 215 q 226 51 150 99 q 347 18 276 18 q 490 68 434 18 q 546 205 546 119 q 322 427 546 354 q 168 502 216 462 q 96 651 96 559 q 162 800 96 740 q 318 861 228 861 q 483 796 418 861 q 549 633 549 731 q 528 613 549 613 q 508 633 514 613 q 501 687 508 651 q 325 820 467 817 l 318 822 q 189 773 244 823 q 135 651 135 723 m 323 893 q 307 901 312 893 q 222 1036 222 1030 q 241 1056 222 1056 q 256 1047 251 1056 l 323 947 l 390 1047 q 407 1056 396 1056 q 427 1036 427 1056 q 340 901 427 1030 q 323 893 334 893 "},"ª":{"x_min":96,"x_max":422,"ha":518,"o":"m 401 839 q 422 819 422 839 l 422 525 q 401 506 422 506 q 380 528 381 506 q 380 563 380 525 q 255 499 331 499 q 141 551 187 499 q 96 672 96 603 q 141 793 96 741 q 255 846 187 846 q 380 781 331 846 q 380 816 380 819 q 401 839 381 839 m 256 538 q 344 578 309 538 q 380 672 380 619 q 344 767 380 726 q 256 808 309 808 q 169 767 204 808 q 135 672 135 726 q 169 578 135 619 q 256 538 204 538 "},"Œ":{"x_min":96,"x_max":1042,"ha":1138,"o":"m 96 436 q 134 659 96 554 q 268 838 182 781 q 381 875 322 875 q 536 806 466 875 q 629 659 594 750 l 629 826 q 648 846 629 846 l 1022 846 q 1042 826 1042 846 q 1022 807 1042 807 l 668 807 l 668 472 l 898 472 q 918 452 918 472 q 898 433 918 433 l 668 433 q 668 399 668 423 q 668 366 668 378 l 668 35 l 1022 35 q 1042 15 1042 35 q 1022 -4 1042 -4 l 648 -4 q 629 15 629 -4 l 629 211 q 536 65 594 122 q 381 -4 466 -4 q 268 32 322 -4 q 134 212 182 89 q 96 436 96 316 m 382 836 q 289 806 333 836 q 169 640 211 755 q 135 436 135 544 q 169 230 135 327 q 289 64 211 116 q 382 35 333 35 q 565 168 491 35 q 629 401 629 282 q 624 518 629 486 q 554 723 609 633 q 382 836 483 836 "},"˛":{"x_min":0,"x_max":0,"ha":96},"ð":{"x_min":96,"x_max":544.609375,"ha":640,"o":"m 544 297 q 544 259 544 284 q 543 223 543 234 q 479 53 543 125 q 319 -19 415 -19 q 159 53 223 -19 q 96 222 96 125 q 159 390 96 318 q 319 463 223 463 q 504 358 437 463 q 369 727 490 613 q 251 629 258 629 q 232 648 232 629 q 340 752 232 656 q 211 804 282 795 q 172 807 197 804 q 153 826 153 809 q 172 846 153 846 q 369 779 282 846 q 447 846 440 846 q 467 826 467 846 q 398 755 467 816 q 544 297 544 616 m 319 20 q 454 83 401 20 q 504 228 504 143 q 449 365 504 306 q 319 424 395 424 q 187 363 240 424 q 135 222 135 303 q 187 81 135 142 q 319 20 240 20 "},"T":{"x_min":89,"x_max":556,"ha":644,"o":"m 536 839 q 556 819 556 839 q 536 800 556 800 l 342 800 l 342 16 q 322 -3 342 -3 q 303 16 303 -3 l 303 800 l 108 800 q 89 819 89 800 q 108 839 89 839 l 536 839 "},"š":{"x_min":96,"x_max":475,"ha":571,"o":"m 141 345 q 226 275 141 297 q 387 236 307 255 q 475 125 475 201 q 412 15 475 57 q 287 -19 358 -19 q 157 11 208 -19 q 96 123 96 50 q 119 155 96 155 q 135 133 135 155 q 287 20 135 20 q 384 43 343 20 q 436 125 436 74 q 348 208 436 183 q 187 247 268 228 q 102 344 102 276 q 163 437 102 406 q 279 461 210 461 q 404 431 355 461 q 464 324 464 395 q 443 306 464 306 q 425 327 426 306 q 402 383 422 361 q 279 422 369 422 q 141 345 141 422 m 273 504 q 257 512 262 504 q 172 647 172 641 q 191 667 172 667 q 208 658 202 667 l 273 558 l 340 658 q 357 667 346 667 q 377 647 377 667 q 291 512 377 641 q 273 504 286 504 "},"Þ":{"x_min":96,"x_max":542,"ha":631,"o":"m 135 660 l 301 660 q 471 589 400 660 q 542 419 542 519 q 471 251 542 321 q 301 181 400 181 l 135 181 l 135 11 q 115 -8 135 -8 q 96 11 96 -8 l 96 829 q 115 849 96 849 q 135 829 135 849 l 135 660 m 503 420 q 443 561 503 503 q 301 620 384 620 l 135 620 l 135 220 l 301 220 q 443 279 384 220 q 503 420 503 338 "},"j":{"x_min":-14,"x_max":169,"ha":264,"o":"m 169 588 q 138 558 169 558 q 106 588 106 558 q 138 621 106 621 q 169 588 169 621 m 138 453 q 158 433 158 453 l 158 -89 q 119 -214 158 -166 q 5 -269 78 -269 q -14 -249 -14 -269 q 5 -230 -14 -231 q 95 -182 69 -224 q 119 -85 119 -145 l 119 433 q 138 453 119 453 "},"1":{"x_min":182,"x_max":405,"ha":588,"o":"m 329 40 l 385 40 q 405 20 405 40 q 385 1 405 1 l 234 1 q 215 20 215 1 q 234 40 215 40 l 290 40 l 290 783 q 201 726 206 726 q 182 745 182 726 q 190 761 182 755 q 309 839 304 839 q 329 819 329 839 l 329 819 l 329 40 "},"›":{"x_min":96,"x_max":233.5,"ha":329,"o":"m 194 220 q 96 6 96 10 q 115 -13 96 -13 q 133 -1 127 -13 l 232 209 q 233 220 233 211 q 232 231 233 230 l 133 443 q 115 456 127 456 q 96 436 96 456 q 194 220 96 430 "},"ı":{"x_min":108,"x_max":147,"ha":256,"o":"m 127 453 q 147 433 147 453 l 147 11 q 127 -8 147 -8 q 108 11 108 -8 l 108 433 q 127 453 108 453 "},"ä":{"x_min":90,"x_max":547,"ha":642,"o":"m 527 457 q 547 437 547 457 l 547 13 q 527 -6 547 -6 q 508 13 508 -6 l 508 102 q 313 -18 442 -18 q 153 54 217 -18 q 90 223 90 126 q 153 392 90 320 q 313 465 217 465 q 508 344 442 465 l 508 437 q 527 457 508 457 m 313 21 q 445 82 392 21 q 498 223 498 143 q 445 364 498 303 q 313 426 392 426 q 181 364 234 426 q 129 223 129 303 q 181 82 129 143 q 313 21 234 21 m 239 584 q 271 552 271 584 q 239 520 271 520 q 207 552 207 520 q 239 584 207 584 m 400 552 q 368 520 400 520 q 336 552 336 520 q 368 584 336 584 q 400 552 400 584 "},"<":{"x_min":96,"x_max":439.0625,"ha":535,"o":"m 419 224 q 408 226 414 224 l 104 430 q 96 452 96 436 q 104 469 96 462 l 408 672 q 419 676 414 676 q 439 656 439 676 q 430 640 439 645 l 145 449 l 430 258 q 439 243 439 252 q 419 224 439 224 "},"£":{"x_min":96,"x_max":668.234375,"ha":764,"o":"m 591 17 q 625 25 607 17 q 648 33 644 33 q 668 13 668 33 q 637 -13 668 -2 q 592 -22 614 -22 q 500 -1 563 -22 q 345 29 409 29 q 171 -6 257 29 q 150 -13 156 -13 q 134 -1 142 -13 q 134 0 134 0 l 134 7 q 160 31 134 19 q 235 187 235 65 q 175 415 235 270 q 127 415 105 415 q 96 434 96 417 q 122 454 96 451 q 159 454 112 454 q 134 591 134 526 q 210 776 134 700 q 396 853 286 853 q 547 801 464 853 q 639 684 639 745 q 619 665 639 665 q 601 679 608 665 q 576 722 594 693 q 396 814 510 814 q 238 748 303 814 q 173 591 173 683 q 202 454 173 530 l 383 454 q 403 434 403 454 q 383 415 403 415 l 218 415 q 274 187 274 274 q 239 55 274 109 q 344 68 293 68 q 512 34 415 68 q 591 17 568 17 "},"¹":{"x_min":96,"x_max":228,"ha":324,"o":"m 189 433 q 228 413 228 433 q 208 394 228 394 l 131 394 q 112 413 112 394 q 150 433 112 433 l 150 776 q 115 755 120 755 q 96 775 96 755 q 104 791 96 786 q 169 832 164 832 q 189 812 189 832 l 189 812 l 189 433 "},"t":{"x_min":69,"x_max":351,"ha":421,"o":"m 227 456 l 331 456 q 351 436 351 456 q 331 417 351 417 l 227 417 l 227 8 q 207 -11 227 -11 q 188 8 188 -11 l 188 417 l 88 417 q 69 436 69 417 q 88 456 69 456 l 188 456 l 188 605 q 207 625 188 625 q 227 605 227 625 l 227 456 "},"ù":{"x_min":90,"x_max":469,"ha":564,"o":"m 449 453 q 469 433 469 453 l 469 8 q 449 -11 469 -11 q 430 8 430 -11 l 430 88 q 269 -21 375 -21 q 137 42 187 -21 q 90 184 90 101 l 90 433 q 109 453 90 453 q 129 433 129 453 l 129 184 q 163 70 129 116 q 269 18 202 18 q 430 275 430 18 l 430 433 q 449 453 430 453 m 198 625 q 212 619 206 625 l 340 492 q 345 478 345 486 q 326 459 345 459 q 312 464 318 459 l 184 592 q 179 605 179 597 q 198 625 179 625 "},"W":{"x_min":88.984375,"x_max":1077.890625,"ha":1167,"o":"m 1058 850 q 1077 830 1077 850 q 840 -13 1077 827 q 820 -28 837 -28 q 801 -13 805 -28 l 583 759 l 365 -13 q 345 -28 361 -28 q 326 -13 330 -28 q 88 830 88 827 q 108 850 88 850 q 128 834 124 850 l 345 61 l 564 834 q 583 850 568 850 q 602 836 598 850 l 821 59 l 1040 834 q 1058 850 1044 850 "},"ï":{"x_min":27,"x_max":220,"ha":256,"o":"m 127 453 q 147 433 147 453 l 147 11 q 127 -8 147 -8 q 108 11 108 -8 l 108 433 q 127 453 108 453 m 59 584 q 91 552 91 584 q 59 520 91 520 q 27 552 27 520 q 59 584 27 584 m 220 552 q 188 520 220 520 q 156 552 156 520 q 188 584 156 584 q 220 552 220 584 "},">":{"x_min":96,"x_max":439.0625,"ha":535,"o":"m 115 224 q 126 226 121 224 l 430 430 q 439 452 439 436 q 430 469 439 462 l 126 671 q 115 676 121 676 q 96 656 96 676 q 104 639 96 645 l 390 450 l 104 258 q 96 243 96 253 q 115 224 96 224 "},"v":{"x_min":89.015625,"x_max":469.546875,"ha":558,"o":"m 449 456 q 469 436 469 456 q 300 -6 469 431 q 279 -19 295 -19 q 258 -6 262 -19 q 89 436 89 431 q 108 456 89 456 q 126 443 122 456 l 279 47 l 431 443 q 449 456 437 456 "},"û":{"x_min":90,"x_max":469,"ha":564,"o":"m 449 453 q 469 433 469 453 l 469 8 q 449 -11 469 -11 q 430 8 430 -11 l 430 88 q 269 -21 375 -21 q 137 42 187 -21 q 90 184 90 101 l 90 433 q 109 453 90 453 q 129 433 129 453 l 129 184 q 163 70 129 116 q 269 18 202 18 q 430 275 430 18 l 430 433 q 449 453 430 453 m 363 482 q 383 501 383 482 q 298 635 383 508 q 280 644 292 644 q 263 635 269 644 q 179 501 179 508 q 198 482 179 482 q 215 491 209 482 l 280 591 l 347 491 q 363 482 352 482 "},"Ò":{"x_min":89,"x_max":664,"ha":753,"o":"m 376 864 q 491 827 436 864 q 623 647 577 770 q 664 423 664 541 q 623 198 664 304 q 491 18 577 76 q 376 -18 436 -18 q 261 18 315 -18 q 129 198 175 76 q 89 423 89 304 q 129 647 89 541 q 261 827 175 770 q 376 864 315 864 m 376 21 q 469 51 425 21 q 588 216 547 102 q 625 423 625 314 q 588 629 625 532 q 469 795 547 744 q 376 825 425 825 q 283 795 327 825 q 162 629 205 744 q 128 423 128 532 q 162 216 128 314 q 283 51 205 102 q 376 21 327 21 m 240 1069 q 254 1063 248 1069 l 382 936 q 387 922 387 930 q 368 903 387 903 q 354 908 360 903 l 226 1036 q 221 1049 221 1041 q 240 1069 221 1069 "},"&":{"x_min":96,"x_max":982.125,"ha":1078,"o":"m 421 -92 q 119 48 186 -92 q 96 147 96 98 q 184 324 96 235 q 348 451 233 373 q 246 677 246 577 q 311 813 246 759 q 455 864 370 864 q 577 820 529 864 q 625 704 625 777 q 548 551 625 625 q 405 443 512 516 q 799 122 532 302 q 865 326 865 216 q 858 378 865 344 q 851 424 851 412 q 871 444 851 444 q 903 326 903 444 q 833 100 903 204 q 973 10 883 69 q 982 -6 982 3 q 964 -26 982 -26 q 809 69 952 -26 q 421 -92 680 -92 m 285 679 q 379 473 285 590 q 511 569 481 541 q 586 704 586 637 q 549 793 586 761 q 455 825 513 825 q 339 786 387 825 q 285 679 285 744 m 373 422 q 221 306 265 348 q 135 144 135 223 q 230 -11 135 41 q 419 -53 307 -53 q 777 90 661 -53 q 373 422 504 274 "},"˝":{"x_min":0,"x_max":0,"ha":96},"Ð":{"x_min":96,"x_max":652,"ha":747,"o":"m 652 419 q 629 248 652 329 q 543 77 601 147 q 382 -7 472 -7 l 188 -7 q 180 -7 184 -7 q 161 12 161 -7 l 161 432 q 122 432 113 432 q 96 450 96 433 q 122 471 96 468 q 161 471 113 471 l 161 825 q 181 846 161 846 l 382 846 q 543 759 472 846 q 629 590 601 690 q 652 419 652 508 m 200 471 l 354 471 q 374 451 374 471 q 354 432 374 432 l 200 432 l 200 32 l 382 32 q 521 109 460 32 q 592 259 568 170 q 613 419 613 334 q 592 579 613 502 q 521 729 568 668 q 382 807 460 807 l 200 807 l 200 471 "},"I":{"x_min":89,"x_max":280,"ha":369,"o":"m 89 23 q 108 43 89 43 l 165 43 l 165 800 l 108 800 q 89 819 89 800 q 108 839 89 839 l 260 839 q 280 819 280 839 q 260 800 280 800 l 204 800 l 204 43 l 260 43 q 280 23 280 43 q 260 4 280 4 l 108 4 q 89 23 89 4 "},"ˉ":{"x_min":0,"x_max":0,"ha":96},"G":{"x_min":89,"x_max":664,"ha":753,"o":"m 376 -15 q 261 21 315 -15 q 129 201 175 79 q 89 426 89 307 q 129 650 89 544 q 261 830 175 773 q 376 867 315 867 q 582 734 497 867 q 618 661 618 677 q 598 641 618 641 q 580 654 586 641 q 548 713 570 673 q 376 828 476 828 q 283 798 327 828 q 162 632 205 746 q 128 426 128 535 q 162 219 128 317 q 283 53 205 105 q 376 24 327 24 q 530 112 464 24 q 608 280 584 183 q 623 407 620 337 l 444 407 q 425 426 425 407 q 444 446 425 446 l 644 446 q 664 426 664 446 q 623 201 664 307 q 491 21 577 79 q 376 -15 436 -15 "},"`":{"x_min":96,"x_max":262.671875,"ha":358,"o":"m 115 819 q 129 813 123 819 l 257 686 q 262 672 262 680 q 243 653 262 653 q 229 658 235 653 l 101 786 q 96 799 96 791 q 115 819 96 819 "},"r":{"x_min":96,"x_max":318,"ha":407,"o":"m 297 456 q 318 437 318 456 q 299 417 318 419 q 175 341 218 405 q 135 198 135 284 l 135 12 q 115 -7 135 -7 q 96 12 96 -7 l 96 436 q 115 456 96 456 q 135 436 135 456 l 135 350 q 202 423 161 394 q 297 456 250 456 "},"¿":{"x_min":96,"x_max":574,"ha":669,"o":"m 574 -23 q 505 -192 574 -127 q 330 -257 437 -257 q 163 -195 230 -257 q 96 -34 96 -133 q 145 104 96 45 q 259 202 169 133 q 334 287 315 244 q 354 400 354 330 q 373 438 354 438 q 393 409 393 438 l 393 400 q 369 270 393 320 q 283 172 345 219 q 180 86 198 106 q 135 -34 135 34 q 191 -167 135 -116 q 330 -218 247 -218 q 477 -166 419 -218 q 535 -29 535 -115 q 553 -5 535 -5 q 574 -23 574 -5 m 377 544 q 345 574 345 544 q 377 607 345 607 q 409 574 409 607 q 377 544 409 544 "},"ý":{"x_min":89.015625,"x_max":477.890625,"ha":567,"o":"m 458 457 q 477 437 477 457 q 205 -265 477 434 q 187 -278 201 -278 q 168 -258 168 -278 q 268 2 168 -254 q 176 218 264 6 q 89 437 89 430 q 108 457 89 457 q 126 445 121 457 l 287 52 l 440 444 q 458 457 446 457 m 235 504 q 240 518 235 512 l 369 647 q 383 653 375 653 q 403 632 403 653 q 398 620 403 625 l 268 490 q 254 485 263 485 q 235 504 235 485 "},"x":{"x_min":89,"x_max":420,"ha":508,"o":"m 400 457 q 420 437 420 457 q 416 426 420 431 l 277 225 l 416 22 q 420 11 420 16 q 400 -8 420 -8 q 385 0 391 -8 l 254 191 l 125 0 q 108 -8 118 -8 q 89 11 89 -8 q 91 22 89 16 l 231 226 l 92 426 q 89 437 89 432 q 108 457 89 457 q 125 448 118 457 l 254 259 l 384 448 q 400 457 390 457 "},"è":{"x_min":89,"x_max":538,"ha":626,"o":"m 312 465 q 473 392 408 465 q 538 223 538 320 q 517 204 538 204 l 129 204 q 187 75 135 129 q 312 21 238 21 q 472 102 413 21 q 488 112 479 112 q 508 93 508 112 q 505 83 508 87 q 312 -18 447 -18 q 153 54 218 -18 q 89 223 89 126 q 152 392 89 320 q 312 465 216 465 m 129 243 l 496 243 q 437 371 489 317 q 312 426 386 426 q 187 371 238 426 q 129 243 135 317 m 198 666 q 212 660 206 666 l 340 533 q 345 519 345 527 q 326 500 345 500 q 312 505 318 500 l 184 633 q 179 646 179 638 q 198 666 179 666 "},"º":{"x_min":96,"x_max":420,"ha":515,"o":"m 257 846 q 373 793 326 846 q 420 670 420 741 q 373 549 420 601 q 257 497 326 497 q 142 549 189 497 q 96 670 96 601 q 142 793 96 741 q 257 846 189 846 m 257 536 q 345 577 310 536 q 381 670 381 618 q 345 766 381 725 q 257 807 310 807 q 169 766 204 807 q 135 670 135 725 q 169 577 135 618 q 257 536 204 536 "},"Ø":{"x_min":96,"x_max":670,"ha":765,"o":"m 383 863 q 546 784 472 863 q 564 823 554 804 q 591 851 577 851 q 611 831 611 851 q 572 752 611 826 q 670 422 670 620 q 631 197 670 302 q 497 17 585 75 q 383 -19 443 -19 q 292 3 339 -19 q 218 59 246 25 q 201 23 209 41 q 175 -3 187 -3 q 155 16 155 -3 q 191 92 155 22 q 96 422 96 223 q 134 646 96 540 q 268 826 182 768 q 383 863 322 863 m 631 422 q 553 713 631 606 l 237 97 q 383 20 302 20 q 476 50 432 20 q 596 215 554 101 q 631 422 631 312 m 526 747 q 383 824 462 824 q 289 793 334 824 q 169 628 211 742 q 135 422 135 530 q 211 131 135 236 l 526 747 "},"μ":{"x_min":0,"x_max":0,"ha":96},"÷":{"x_min":96,"x_max":409,"ha":504,"o":"m 115 431 q 96 450 96 431 q 115 470 96 470 l 390 470 q 409 450 409 470 q 390 431 409 431 l 115 431 m 253 402 q 285 370 285 402 q 253 338 285 338 q 221 370 221 338 q 253 402 221 402 m 253 505 q 221 537 221 505 q 253 569 221 569 q 285 537 285 569 q 253 505 285 505 "},"h":{"x_min":96,"x_max":477,"ha":565,"o":"m 297 464 q 429 400 379 464 q 477 258 477 341 l 477 11 q 457 -8 477 -8 q 438 11 438 -8 l 438 258 q 401 372 438 326 q 297 425 363 425 q 168 359 213 425 q 134 214 128 300 q 134 197 134 196 l 134 11 q 115 -8 134 -8 q 96 11 96 -8 l 96 823 q 115 843 96 843 q 134 823 134 843 l 134 363 q 297 464 189 464 "},".":{"x_min":96,"x_max":160,"ha":256,"o":"m 128 57 q 160 26 160 57 q 128 -6 160 -6 q 96 26 96 -6 q 128 57 96 57 "},";":{"x_min":96,"x_max":174.09375,"ha":269,"o":"m 142 390 q 110 422 110 390 q 142 453 110 453 q 174 422 174 453 q 142 390 174 390 m 174 27 l 174 19 q 157 -58 175 -8 q 115 -114 136 -114 q 96 -94 96 -114 q 132 -2 112 -61 q 110 27 110 4 q 142 60 110 60 q 174 27 172 60 "},"f":{"x_min":89,"x_max":510,"ha":599,"o":"m 396 455 q 376 436 396 436 l 236 436 l 236 9 q 216 -10 236 -10 q 197 9 197 -10 l 197 436 l 108 436 q 89 455 89 436 q 108 475 89 475 l 197 475 l 197 701 q 238 808 197 770 q 351 846 280 846 q 439 823 390 846 q 505 769 487 800 q 510 756 510 762 q 490 737 510 737 q 446 772 490 737 q 352 807 401 807 q 236 709 236 807 l 236 475 l 376 475 q 396 455 396 475 "},"“":{"x_min":102.90625,"x_max":297.4375,"ha":393,"o":"m 103 700 l 103 708 q 119 786 101 736 q 161 842 140 842 q 180 822 180 842 q 144 729 165 787 q 166 700 166 722 q 134 668 166 668 q 103 700 105 668 m 219 692 l 219 700 q 236 778 218 728 q 277 834 257 834 q 297 814 297 834 q 261 721 280 779 q 283 692 283 714 q 251 660 283 660 q 219 692 221 660 "},"A":{"x_min":89,"x_max":675.109375,"ha":764,"o":"m 108 -10 q 89 9 89 -10 q 362 847 89 12 q 382 860 366 860 q 401 847 397 860 q 675 9 675 12 q 655 -10 675 -10 q 635 4 641 -10 l 531 324 l 231 324 l 126 4 q 108 -10 122 -10 m 381 782 l 244 363 l 519 363 l 381 782 "},"6":{"x_min":89,"x_max":599,"ha":688,"o":"m 344 526 q 528 444 453 526 q 599 255 599 364 q 528 67 599 147 q 344 -14 453 -14 q 176 54 247 -14 q 93 219 105 122 q 89 283 89 227 q 140 552 89 424 q 294 777 194 688 q 434 857 383 857 q 454 837 454 857 q 437 818 454 825 q 386 795 420 812 q 222 631 290 741 q 139 413 161 530 q 344 526 215 526 m 344 25 q 500 94 436 25 q 560 255 560 162 q 500 416 560 348 q 344 487 436 487 q 190 417 252 487 q 129 255 129 348 q 190 93 129 162 q 344 25 252 25 "},"‘":{"x_min":102.90625,"x_max":180.78125,"ha":269,"o":"m 103 700 l 103 708 q 119 786 101 736 q 161 842 140 842 q 180 822 180 842 q 144 729 165 787 q 166 700 166 722 q 134 668 166 668 q 103 700 105 668 "},"π":{"x_min":0,"x_max":0,"ha":96},"O":{"x_min":89,"x_max":664,"ha":753,"o":"m 376 864 q 491 827 436 864 q 623 647 577 770 q 664 423 664 541 q 623 198 664 304 q 491 18 577 76 q 376 -18 436 -18 q 261 18 315 -18 q 129 198 175 76 q 89 423 89 304 q 129 647 89 541 q 261 827 175 770 q 376 864 315 864 m 376 21 q 469 51 425 21 q 588 216 547 102 q 625 423 625 314 q 588 629 625 532 q 469 795 547 744 q 376 825 425 825 q 283 795 327 825 q 162 629 205 744 q 128 423 128 532 q 162 216 128 314 q 283 51 205 102 q 376 21 327 21 "},"n":{"x_min":96,"x_max":475,"ha":564,"o":"m 295 467 q 427 403 377 467 q 475 261 475 344 l 475 13 q 455 -6 475 -6 q 436 13 436 -6 l 436 261 q 398 378 436 329 q 295 428 361 428 q 171 361 214 428 q 135 207 135 303 l 135 13 q 115 -6 135 -6 q 96 13 96 -6 l 96 437 q 115 457 96 457 q 135 437 135 457 l 135 369 q 295 467 191 467 "},"3":{"x_min":89,"x_max":596,"ha":685,"o":"m 439 451 q 552 361 509 423 q 596 224 596 300 q 520 50 596 122 q 341 -21 445 -21 q 164 50 239 -21 q 89 224 89 122 q 108 244 89 244 q 128 224 128 244 q 191 77 128 137 q 341 18 255 18 q 493 77 429 18 q 557 225 557 137 q 493 371 557 311 q 341 432 429 432 q 323 451 323 432 q 343 471 323 471 q 477 521 419 471 q 536 646 536 571 q 477 771 536 721 q 343 821 419 821 q 207 770 265 821 q 149 645 149 720 q 129 626 149 626 q 110 645 110 626 q 180 798 110 737 q 343 860 250 860 q 504 798 434 860 q 575 646 575 737 q 537 529 575 582 q 439 451 500 477 "},"9":{"x_min":89,"x_max":596,"ha":685,"o":"m 341 857 q 524 781 452 857 q 596 595 596 706 q 529 308 596 455 q 362 62 466 172 q 282 -9 336 36 q 270 -14 276 -14 q 251 5 251 -14 q 258 20 251 13 q 334 91 284 42 q 537 454 489 255 q 341 365 461 365 q 164 435 239 365 q 89 611 89 506 q 164 785 89 713 q 341 857 239 857 m 341 404 q 493 463 429 404 q 557 611 557 523 q 493 757 557 697 q 341 817 429 817 q 191 757 255 817 q 128 611 128 697 q 191 463 128 523 q 341 404 255 404 "},"l":{"x_min":96,"x_max":135,"ha":231,"o":"m 115 843 q 135 823 135 843 l 135 9 q 115 -10 135 -10 q 96 9 96 -10 l 96 823 q 115 843 96 843 "},"¤":{"x_min":96,"x_max":608.5,"ha":704,"o":"m 439 819 q 272 713 341 819 q 200 519 218 630 l 451 519 q 471 499 471 519 q 451 480 471 480 l 192 480 q 192 425 192 451 l 451 425 q 471 405 471 425 q 451 386 471 386 l 192 386 q 255 149 198 256 q 439 15 326 15 q 540 51 491 15 q 589 87 589 87 q 608 67 608 87 q 602 54 608 59 q 439 -24 536 -24 q 226 120 308 -24 q 153 386 159 240 q 118 386 114 386 q 96 406 96 388 q 118 425 96 422 q 152 425 114 425 q 155 480 152 451 q 119 480 112 480 q 96 499 96 482 q 122 519 96 516 q 159 519 109 519 q 244 741 180 646 q 439 858 325 858 q 602 779 536 858 q 608 766 608 773 q 589 747 608 747 q 540 783 589 747 q 439 819 491 819 "},"∂":{"x_min":0,"x_max":0,"ha":96},"4":{"x_min":89,"x_max":577.890625,"ha":667,"o":"m 478 460 l 558 460 q 577 440 577 460 q 558 421 577 421 l 478 421 l 478 15 q 458 -4 478 -4 q 439 15 439 -4 l 439 421 l 108 421 q 89 440 89 421 l 89 444 l 157 837 q 176 854 159 854 q 195 834 197 854 l 195 832 l 131 460 l 439 460 l 439 834 q 458 854 439 854 q 478 834 478 854 l 478 460 "},"p":{"x_min":96,"x_max":553,"ha":642,"o":"m 329 465 q 490 391 423 465 q 553 223 553 320 q 490 55 553 126 q 329 -18 423 -18 q 135 102 200 -18 l 135 -254 q 115 -274 135 -274 q 96 -254 96 -274 l 96 437 q 115 457 96 457 q 135 437 135 457 l 135 343 q 329 465 200 465 m 329 21 q 461 82 408 21 q 514 223 514 143 q 461 364 514 303 q 329 426 408 426 q 196 364 250 426 q 143 223 143 303 q 196 82 143 143 q 329 21 250 21 "},"‡":{"x_min":8474,"x_max":8875,"ha":8725,"o":"m 8474 -29 q 8493 -10 8474 -10 l 8655 -10 l 8655 561 l 8493 561 q 8474 580 8474 561 q 8493 600 8474 600 l 8655 600 l 8655 829 q 8674 849 8655 849 q 8694 829 8694 849 l 8694 600 l 8855 600 q 8875 580 8875 600 q 8855 561 8875 561 l 8694 561 l 8694 -10 l 8855 -10 q 8875 -29 8875 -10 q 8855 -49 8875 -49 l 8694 -49 l 8694 -259 q 8674 -279 8694 -279 q 8655 -259 8655 -279 l 8655 -49 l 8493 -49 q 8474 -29 8474 -49 "},"à":{"x_min":90,"x_max":547,"ha":642,"o":"m 527 457 q 547 437 547 457 l 547 13 q 527 -6 547 -6 q 508 13 508 -6 l 508 102 q 313 -18 442 -18 q 153 54 217 -18 q 90 223 90 126 q 153 392 90 320 q 313 465 217 465 q 508 344 442 465 l 508 437 q 527 457 508 457 m 313 21 q 445 82 392 21 q 498 223 498 143 q 445 364 498 303 q 313 426 392 426 q 181 364 234 426 q 129 223 129 303 q 181 82 129 143 q 313 21 234 21 m 254 666 q 268 660 262 666 l 396 533 q 401 519 401 527 q 382 500 401 500 q 368 505 374 500 l 240 633 q 235 646 235 638 q 254 666 235 666 "},"Ü":{"x_min":96,"x_max":606,"ha":701,"o":"m 586 854 q 606 834 606 854 l 606 220 q 535 45 606 108 q 351 -17 465 -17 q 167 46 239 -17 q 96 220 96 109 l 96 834 q 115 854 96 854 q 135 834 135 854 l 135 220 q 197 72 135 126 q 351 22 254 22 q 507 73 448 22 q 567 220 567 124 l 567 834 q 586 854 567 854 m 281 973 q 313 941 313 973 q 281 909 313 909 q 249 941 249 909 q 281 973 249 973 m 442 941 q 410 909 442 909 q 378 941 378 909 q 410 973 378 973 q 442 941 442 973 "},"ó":{"x_min":89,"x_max":538,"ha":626,"o":"m 312 467 q 473 393 408 467 q 538 225 538 320 q 473 55 538 127 q 312 -17 408 -17 q 152 55 216 -17 q 89 225 89 127 q 152 393 89 320 q 312 467 216 467 m 313 22 q 445 83 392 22 q 498 225 498 144 q 445 366 498 305 q 313 427 392 427 q 180 366 233 427 q 128 225 128 305 q 180 83 128 144 q 313 22 233 22 m 290 518 q 295 532 290 526 l 424 661 q 438 667 430 667 q 458 646 458 667 q 453 634 458 639 l 323 504 q 309 499 318 499 q 290 518 290 499 "}}}
